<svg width="858" height="755" viewBox="0 0 858 755" fill="none" xmlns="http://www.w3.org/2000/svg">
<g clip-path="url(#clip0)">
<g filter="url(#filter0_d)">
<path d="M738.967 124.809L626.351 15.8025C615.806 5.59542 601.793 0 586.903 0C572.013 0 557.999 5.59542 547.454 15.8025L432.018 134.647L311.17 15.8025C300.625 5.59542 286.612 0 271.722 0C256.832 0 242.818 5.59542 232.273 15.8025L119.658 124.809C109.113 135.016 103.332 148.581 103.332 162.994C103.332 177.407 109.113 190.971 119.658 201.178L232.273 310.185C242.818 320.392 256.832 325.987 271.722 325.987C286.612 325.987 300.625 320.392 311.17 310.185C311.17 310.185 429.515 192.545 431.18 190.356C432.844 192.545 547.442 310.185 547.442 310.185C557.987 320.392 572 325.987 586.89 325.987C601.78 325.987 615.794 320.392 626.339 310.185L738.954 201.178C760.755 180.087 760.755 145.851 738.967 124.809ZM404.652 162.895L283.347 283.179C277.147 289.18 266.373 289.18 260.224 283.179L147.608 174.172C144.508 171.172 142.793 167.187 142.793 162.981C142.793 158.726 144.508 154.791 147.608 151.79L260.224 42.7837C263.324 39.783 267.44 38.1229 271.785 38.1229C276.181 38.1229 280.247 39.783 283.347 42.7837L404.652 162.895ZM711.13 174.185L598.515 283.191C592.137 289.365 581.732 289.365 575.392 283.191L458.482 162.957L575.392 42.7222C578.581 39.6355 582.786 38.1105 586.954 38.1105C591.121 38.1105 595.326 39.6355 598.515 42.7222L711.13 151.766C717.508 157.927 717.508 167.999 711.13 174.185Z" fill="url(#paint0_linear)"/>
</g>
<g filter="url(#filter1_d)">
<path d="M45.788 488.504V585.803H71.5239V605.533H0V585.803H25.7359V488.504H0V468.987H71.5239V488.504H45.788Z" fill="black"/>
<path d="M97.5914 468.987L113.21 469.2L181.54 565.257V469.2H201.568V605.533H185.525L117.779 510.256V605.533H97.533V469.001H97.5914V468.987Z" fill="black"/>
<path d="M227.577 605.533V468.987H313.39V488.717H248.363V527.196H305.972V547.125H248.363V605.533H227.577ZM343.888 488.518V586.955H370.624V605.49H296.321V586.955H323.057V469.002H370.58V488.518H343.888Z" fill="black"/>
<path d="M396.691 468.987L412.31 469.2L480.64 565.257V469.2H500.667V605.533H484.625L416.879 510.256V605.533H396.633V469.001H396.691V468.987Z" fill="black"/>
<path d="M578.966 488.504V585.803H604.702V605.533H533.178V585.803H558.914V488.504H533.178V468.987H604.702V488.504H578.966Z" fill="black"/>
<path d="M666.309 487.263H624.209V468.987H728.244V487.263H686.347V605.533H666.294V487.263H666.309Z" fill="black"/>
<path d="M796.428 528.946L834.398 468.987H858.286L806.554 549.871V605.533H786.259V549.871L734.745 468.987H758.416L796.428 528.946Z" fill="black"/>
</g>
<g filter="url(#filter2_d)">
<path d="M298.029 679.495H274.385V742.04H271.976V679.495H248.332V677.086H298.029V679.495ZM344.38 709.831H311.813V739.631H348.93V742.04H309.404V677.086H348.93V679.495H311.813V707.422H344.38V709.831ZM405.586 722.143C404.961 728.835 402.657 733.98 398.671 737.579C394.686 741.148 389.273 742.932 382.433 742.932C377.823 742.932 373.734 741.772 370.165 739.453C366.626 737.103 363.875 733.787 361.912 729.504C359.949 725.192 358.953 720.27 358.923 714.738V704.701C358.923 699.169 359.889 694.232 361.823 689.89C363.756 685.518 366.507 682.142 370.076 679.763C373.674 677.384 377.793 676.194 382.433 676.194C389.214 676.194 394.612 677.978 398.627 681.547C402.642 685.116 404.961 690.232 405.586 696.894H403.177C402.493 690.916 400.411 686.38 396.931 683.287C393.452 680.164 388.619 678.603 382.433 678.603C376.128 678.603 371.027 680.982 367.131 685.741C363.265 690.499 361.332 696.879 361.332 704.879V714.426C361.332 719.541 362.194 724.077 363.919 728.032C365.644 731.958 368.113 735.021 371.325 737.222C374.566 739.423 378.269 740.523 382.433 740.523C388.649 740.523 393.496 738.992 396.976 735.928C400.485 732.865 402.552 728.27 403.177 722.143H405.586ZM466.971 742.04H464.562V709.831H423.074V742.04H420.665V677.086H423.074V707.422H464.562V677.086H466.971V742.04ZM550.394 677.086V721.073C550.394 727.943 548.401 733.311 544.416 737.177C540.431 741.014 535.033 742.932 528.222 742.932C521.411 742.932 516.013 741.014 512.028 737.177C508.043 733.311 506.035 728.002 506.006 721.251V677.086H508.415V720.984C508.415 726.991 510.214 731.75 513.813 735.259C517.441 738.769 522.244 740.523 528.222 740.523C534.2 740.523 538.988 738.769 542.587 735.259C546.185 731.75 547.985 726.976 547.985 720.939V677.086H550.394ZM606.514 726.471C606.514 723.705 605.86 721.37 604.552 719.467C603.273 717.534 601.235 715.838 598.44 714.381C595.674 712.894 591.48 711.377 585.859 709.831C580.238 708.284 576.015 706.723 573.19 705.147C570.394 703.57 568.342 701.741 567.034 699.659C565.725 697.578 565.071 695.05 565.071 692.076C565.071 687.347 567.063 683.525 571.049 680.611C575.034 677.666 580.224 676.194 586.618 676.194C590.782 676.194 594.514 677.012 597.815 678.648C601.146 680.254 603.719 682.529 605.533 685.473C607.347 688.388 608.254 691.689 608.254 695.377H605.845C605.845 690.529 604.061 686.529 600.492 683.376C596.923 680.194 592.298 678.603 586.618 678.603C580.908 678.603 576.283 679.882 572.744 682.44C569.234 684.968 567.48 688.15 567.48 691.986C567.48 695.882 569.011 699.02 572.075 701.399C575.138 703.779 580.194 705.89 587.242 707.734C594.291 709.548 599.451 711.66 602.722 714.069C606.886 717.132 608.968 721.236 608.968 726.382C608.968 729.653 608.046 732.553 606.202 735.081C604.358 737.579 601.741 739.512 598.351 740.88C594.96 742.248 591.153 742.932 586.93 742.932C582.231 742.932 578.008 742.159 574.261 740.612C570.513 739.036 567.688 736.806 565.784 733.921C563.911 731.036 562.974 727.631 562.974 723.705H565.383C565.383 729.028 567.376 733.162 571.361 736.107C575.346 739.051 580.536 740.523 586.93 740.523C592.611 740.523 597.295 739.23 600.983 736.642C604.67 734.025 606.514 730.634 606.514 726.471Z" fill="#665E5E"/>
</g>
</g>
<defs>
<filter id="filter0_d" x="103.332" y="0" width="661.975" height="333.987" filterUnits="userSpaceOnUse" color-interpolation-filters="sRGB">
<feFlood flood-opacity="0" result="BackgroundImageFix"/>
<feColorMatrix in="SourceAlpha" type="matrix" values="0 0 0 0 0 0 0 0 0 0 0 0 0 0 0 0 0 0 127 0"/>
<feOffset dx="6" dy="4"/>
<feGaussianBlur stdDeviation="2"/>
<feColorMatrix type="matrix" values="0 0 0 0 0 0 0 0 0 0 0 0 0 0 0 0 0 0 0.25 0"/>
<feBlend mode="normal" in2="BackgroundImageFix" result="effect1_dropShadow"/>
<feBlend mode="normal" in="SourceGraphic" in2="effect1_dropShadow" result="shape"/>
</filter>
<filter id="filter1_d" x="0" y="467.987" width="869.286" height="146.546" filterUnits="userSpaceOnUse" color-interpolation-filters="sRGB">
<feFlood flood-opacity="0" result="BackgroundImageFix"/>
<feColorMatrix in="SourceAlpha" type="matrix" values="0 0 0 0 0 0 0 0 0 0 0 0 0 0 0 0 0 0 127 0"/>
<feOffset dx="6" dy="4"/>
<feGaussianBlur stdDeviation="2.5"/>
<feColorMatrix type="matrix" values="0 0 0 0 0 0 0 0 0 0 0 0 0 0 0 0 0 0 0.25 0"/>
<feBlend mode="normal" in2="BackgroundImageFix" result="effect1_dropShadow"/>
<feBlend mode="normal" in="SourceGraphic" in2="effect1_dropShadow" result="shape"/>
</filter>
<filter id="filter2_d" x="247.332" y="675.194" width="370.636" height="76.7382" filterUnits="userSpaceOnUse" color-interpolation-filters="sRGB">
<feFlood flood-opacity="0" result="BackgroundImageFix"/>
<feColorMatrix in="SourceAlpha" type="matrix" values="0 0 0 0 0 0 0 0 0 0 0 0 0 0 0 0 0 0 127 0"/>
<feOffset dx="4" dy="4"/>
<feGaussianBlur stdDeviation="2.5"/>
<feColorMatrix type="matrix" values="0 0 0 0 0 0 0 0 0 0 0 0 0 0 0 0 0 0 0.23 0"/>
<feBlend mode="normal" in2="BackgroundImageFix" result="effect1_dropShadow"/>
<feBlend mode="normal" in="SourceGraphic" in2="effect1_dropShadow" result="shape"/>
</filter>
<linearGradient id="paint0_linear" x1="420.965" y1="455.869" x2="431.604" y2="58.4176" gradientUnits="userSpaceOnUse">
<stop stop-color="#2E779E" stop-opacity="0"/>
<stop offset="0.4559" stop-color="#16A4E3"/>
<stop offset="0.8883" stop-color="#1F65AF"/>
</linearGradient>
<clipPath id="clip0">
<rect width="858" height="755" fill="white"/>
</clipPath>
</defs>
</svg>
