<svg xmlns="http://www.w3.org/2000/svg" width="640.64" height="406.55" viewBox="0 0 640.64 406.55"><title>321</title><g style="isolation:isolate"><path d="M427,136.41s9,32.48,13.44,37.8,18.9,13.14,18.9,13.14l-3.84,6.79s-26.29-13.4-30.86-24.36a82.7,82.7,0,0,1-5.31-16.84c-.73-4-3.7-14-2.22-18C418.09,132.33,425,130.94,427,136.41Z" transform="translate(-93.58 -82)" fill="#00bad1"/><path d="M427,136.41s9,32.48,13.44,37.8,18.9,13.14,18.9,13.14l-3.84,6.79s-26.29-13.4-30.86-24.36a82.7,82.7,0,0,1-5.31-16.84c-.73-4-3.7-14-2.22-18C418.09,132.33,425,130.94,427,136.41Z" transform="translate(-93.58 -82)" fill="#00a1cc" opacity="0.65" style="mix-blend-mode:multiply"/><path d="M517.27,291.47l6.63-6.2s26.55-1.95,28.1.38-25.17,14.93-28.6,14.7S517.72,294,517.27,291.47Z" transform="translate(-93.58 -82)" fill="#110239"/><path d="M468.61,201.66s25.1-6.39,27.17-2.25,28.12,85.86,28.12,85.86l-6.63,6.2s-27.95-69-36-76.19S464.86,204.51,468.61,201.66Z" transform="translate(-93.58 -82)" fill="#f88667"/><path d="M468.61,201.66s25.1-6.39,27.17-2.25,28.12,85.86,28.12,85.86l-6.63,6.2s-27.95-69-36-76.19S464.86,204.51,468.61,201.66Z" transform="translate(-93.58 -82)" fill="#e45940"/><path d="M455.66,186.61a22.61,22.61,0,0,0,5.22-2.09c1.4-.77,2.75-1.5,4.43-1.26,1.19.17,10.84,4.19,8.27,6-.83.59-2.91-.43-3.74-.73-1.19-.42-2.38-1-3.52-1.51,1-.05,6.26,2.16,5.71,3.38-1,2.14-6.24-.72-7.47-1.41.93.14,4.2,1.37,4.2,2.56,0,1.87-3.89.31-4.73-.12a5.68,5.68,0,0,0-1.77-.86,7.13,7.13,0,0,0-2.37.42,14.14,14.14,0,0,1-4.11.08c-.8-.08-2.67.09-3.07-.6a2.94,2.94,0,0,1,.52-2.93A5.85,5.85,0,0,1,455.66,186.61Z" transform="translate(-93.58 -82)" fill="#f88667"/><path d="M455.66,186.61a22.61,22.61,0,0,0,5.22-2.09c1.4-.77,2.75-1.5,4.43-1.26,1.19.17,10.84,4.19,8.27,6-.83.59-2.91-.43-3.74-.73-1.19-.42-2.38-1-3.52-1.51,1-.05,6.26,2.16,5.71,3.38-1,2.14-6.24-.72-7.47-1.41.93.14,4.2,1.37,4.2,2.56,0,1.87-3.89.31-4.73-.12a5.68,5.68,0,0,0-1.77-.86,7.13,7.13,0,0,0-2.37.42,14.14,14.14,0,0,1-4.11.08c-.8-.08-2.67.09-3.07-.6a2.94,2.94,0,0,1,.52-2.93A5.85,5.85,0,0,1,455.66,186.61Z" transform="translate(-93.58 -82)" fill="#e45940"/><polygon points="405.56 61.23 411.47 63.65 391.19 112.59 385.22 109.37 405.56 61.23" fill="#110239"/><rect x="348.76" y="108.51" width="38.61" height="6" fill="#110239"/><path d="M374.06,162.61c5.16-3,6-6.21,3.16-17s4.63-22,11.83-25c5.29-2.17,9.94-3.13,13.15-8.77s-2.88-17.67,7.31-26.57c7.43-6.49,18.08-1.31,18.08-1.31,2.29-1.27,3.24,12.1,3.4,22.15-12.9,19.75-9.22,45.55-4.52,67.66a9.16,9.16,0,0,0,.47,1.48c-1,17.11-1.83,31.28-1.83,31.28s-31,17.56-52.11,2.52S363.71,168.53,374.06,162.61Z" transform="translate(-93.58 -82)" fill="#110239"/><path d="M465.26,287.42l7.87,4.53s9.65,24.8,7.88,27-21.66-19.69-22.45-23S462.94,288.6,465.26,287.42Z" transform="translate(-93.58 -82)" fill="#110239"/><path d="M455.22,200.2s50.6,3.54,55.32,8.07-38.23,83.2-38.23,83.2l-7.05-4.05s10.63-37.41,13.39-46.07,8.07-19.1,7.08-20.48-52,6.3-51.58-8.07S455.22,200.2,455.22,200.2Z" transform="translate(-93.58 -82)" fill="#f88667"/><path d="M430.26,114.85S425,129.32,428.2,140.1l-17.72-4.28s7.25-24.22,10.35-28.36S430.26,114.85,430.26,114.85Z" transform="translate(-93.58 -82)" fill="#f88667"/><path d="M422.88,127.84c-5.8,0-8.81,4.29-9.09,8.78l-3.31-.8s7.25-24.22,10.35-28.36,9.43,7.39,9.43,7.39a59.5,59.5,0,0,0-3,14A9.45,9.45,0,0,0,422.88,127.84Z" transform="translate(-93.58 -82)" fill="#e45940"/><path d="M432.1,96s6.88,3.28,8.52,6.06.21,6.61.35,9.14.83,6.31.45,6.92-2.92,0-3.33.55-3.7,2.6-4.73,4.93-2.39,2.54-4.79,1.37S417,111.67,416.89,106,425.28,93.66,432.1,96Z" transform="translate(-93.58 -82)" fill="#f88667"/><path d="M426.27,88.27s3.21,6.42,3.54,9-2.1,10.08-3.54,11.08-.23-8.42-3.88-5.54.22,8.31,0,9.41-1.88,4.66-5.65,5-10-18.39-5.87-23S422,88.27,426.27,88.27Z" transform="translate(-93.58 -82)" fill="#110239"/><path d="M425.64,84.5a10.16,10.16,0,0,1,12.37.56c6.31,5.09,6.09,12.74,11.29,12.07,0,0-3.43,8.86-11,6.76S423,89.82,425.64,84.5Z" transform="translate(-93.58 -82)" fill="#110239"/><path d="M405,184.64l23.47-1.77s12.21,13.64,24.28,13.64H494s-2.23,18.82-12.16,32.44c0,0-39.19,1.24-58.29-.34S386.31,206,405,184.64Z" transform="translate(-93.58 -82)" fill="#fd425f"/><path d="M402.82,187.4c.67-.92,1.39-1.84,2.19-2.76l23.47-1.77s11.89,13.25,23.79,13.61C437.9,197.93,410.43,201.11,402.82,187.4Z" transform="translate(-93.58 -82)" fill="#e42244"/><path d="M483.11,199.27c-6-.59-11.78-2-17.67-2.76h25.87C488.76,197.82,487.5,199.7,483.11,199.27Z" transform="translate(-93.58 -82)" fill="#e42244"/><path d="M412.73,127.64s10.77,4.24,14.42,4.63c0,0,7.59,16.74,10.55,21.26s-7.49,21.86-8.08,29.34c0,0-6.27,6-25.29,2.31C404.33,185.18,399.37,138.17,412.73,127.64Z" transform="translate(-93.58 -82)" fill="#00bad1"/><path d="M409.84,137.64c3.3-1.51,9,0,10.64,3.34,2,4.09-.06,11.35.19,15.78.25,4.65.54,10.83,1.72,15.37a31.91,31.91,0,0,0,6.19,11.48c-2.44,1.47-9.5,4.42-24.25,1.57,0,0-3-28.67,2-46.24C407.71,138.47,409,138,409.84,137.64Z" transform="translate(-93.58 -82)" fill="#00a1cc" opacity="0.65" style="mix-blend-mode:multiply"/><path d="M452,186.61a22.61,22.61,0,0,0,5.22-2.09,6.93,6.93,0,0,1,4.43-1.26c1.19.17,10.84,4.19,8.27,6-.83.59-2.91-.43-3.75-.73-1.18-.42-2.37-1-3.51-1.51,1-.05,6.26,2.16,5.71,3.38-1,2.14-6.25-.72-7.48-1.41.94.14,4.21,1.37,4.21,2.56,0,1.87-3.89.31-4.73-.12a5.68,5.68,0,0,0-1.77-.86,7.13,7.13,0,0,0-2.37.42,14.14,14.14,0,0,1-4.11.08c-.8-.08-2.68.09-3.08-.6a3,3,0,0,1,.52-2.93A5.94,5.94,0,0,1,452,186.61Z" transform="translate(-93.58 -82)" fill="#f88667"/><path d="M453.59,186.37l-2.06,7.77s-50.8-5.9-52-14.91,2.07-50.94,14.32-46.59.15,34.78,2.07,37.14S453.59,186.37,453.59,186.37Z" transform="translate(-93.58 -82)" fill="#00bad1"/><path d="M706.43,382.83H625c-15.2,0-26.06-12.85-21.25-25.31.08-.2.16-.41.25-.62,7.66-16.84,30.28-12.4,36.28-4.58,0,0-15.29-27.7,17.36-27.7,27.39,0,18.91,26.92,18.91,26.92s5.15-20.76,21.24-19.18c26,2.55,10.55,28.49,10.55,28.49s26.1-5.87,25.85,8.17S706.43,382.83,706.43,382.83Z" transform="translate(-93.58 -82)" fill="#01c7e2"/><path d="M200.57,391.63H144.73c-10.42,0-17.88-8.82-14.58-17.37l.17-.42c5.26-11.56,20.78-8.51,24.89-3.14,0,0-10.49-19,11.91-19,18.8,0,13,18.47,13,18.47s3.53-14.24,14.57-13.16c17.87,1.75,7.24,19.55,7.24,19.55s17.91-4,17.73,5.6S200.57,391.63,200.57,391.63Z" transform="translate(-93.58 -82)" fill="#01c7e2"/><path d="M410.14,488.55H296.91c-21.14,0-36.26-17.87-29.56-35.21.11-.29.21-.58.34-.87,10.66-23.43,42.13-17.26,50.47-6.37,0,0-21.27-38.54,24.16-38.54,38.11,0,26.31,37.46,26.31,37.46s7.17-28.89,29.55-26.7c36.23,3.56,14.69,39.64,14.69,39.64s36.31-8.16,35.95,11.38S410.14,488.55,410.14,488.55Z" transform="translate(-93.58 -82)" fill="#01c7e2"/><path d="M236.35,235.93a39.76,39.76,0,0,0,0-11.39l-8.78-1.38a35.1,35.1,0,0,0-1.08-3.93l7-5.61a43.29,43.29,0,0,0-5.73-9.84L219.4,207a35.08,35.08,0,0,0-2.86-2.86l3.21-8.33a43.29,43.29,0,0,0-9.84-5.73l-5.62,7a34.36,34.36,0,0,0-3.92-1.08L199,187.18a39.76,39.76,0,0,0-11.39,0L186.23,196A34,34,0,0,0,182.3,197l-5.62-7a43.29,43.29,0,0,0-9.84,5.73l3.22,8.33A33.56,33.56,0,0,0,167.2,207l-8.33-3.21a43.29,43.29,0,0,0-5.73,9.84l7,5.61a35.06,35.06,0,0,0-1.07,3.93l-8.78,1.38a38.82,38.82,0,0,0,0,11.39L159,237.3a34.49,34.49,0,0,0,1.07,3.93l-7,5.62a43.29,43.29,0,0,0,5.73,9.84l8.33-3.22a35.08,35.08,0,0,0,2.86,2.86l-3.22,8.33a43.29,43.29,0,0,0,9.84,5.73l5.62-7a33.93,33.93,0,0,0,3.93,1.07l1.37,8.78a38.82,38.82,0,0,0,11.39,0l1.38-8.78a34.32,34.32,0,0,0,3.92-1.07l5.62,7a43.29,43.29,0,0,0,9.84-5.73l-3.21-8.33a35.08,35.08,0,0,0,2.86-2.86l8.33,3.22a43.29,43.29,0,0,0,5.73-9.84l-7-5.62a34.52,34.52,0,0,0,1.08-3.93Zm-43,17a22.75,22.75,0,1,1,22.75-22.75A22.75,22.75,0,0,1,193.3,253Z" transform="translate(-93.58 -82)" fill="#e8466d"/><path d="M193.3,204.65a25.59,25.59,0,1,0,25.58,25.58A25.59,25.59,0,0,0,193.3,204.65Zm0,41.49a15.91,15.91,0,1,1,15.91-15.91A15.91,15.91,0,0,1,193.3,246.14Z" transform="translate(-93.58 -82)" fill="#110239"/><path d="M615.46,459.51a43.53,43.53,0,0,0,4.28-12L611,442.79a36.66,36.66,0,0,0,.35-4.53l9.43-3.29a48.28,48.28,0,0,0-2.32-12.49l-10,.24a38,38,0,0,0-1.93-4.08l6.51-7.55a48.57,48.57,0,0,0-8.18-9.72l-8.53,5.21a38,38,0,0,0-3.72-2.61l1.86-9.74a44,44,0,0,0-12-4.29l-4.75,8.71a40.63,40.63,0,0,0-4.53-.35L570,388.87a48.28,48.28,0,0,0-12.49,2.32l.24,10a39.83,39.83,0,0,0-4.08,1.92l-7.54-6.51a48.34,48.34,0,0,0-9.72,8.19l5.2,8.52A40.62,40.62,0,0,0,539,417l-9.74-1.85a44,44,0,0,0-4.29,12l8.71,4.74a38.68,38.68,0,0,0-.34,4.54l-9.44,3.28a48.43,48.43,0,0,0,2.32,12.5l10-.25a36.18,36.18,0,0,0,1.93,4.08l-6.52,7.55a48.62,48.62,0,0,0,8.19,9.72l8.52-5.2a39.35,39.35,0,0,0,3.73,2.6l-1.86,9.75A47,47,0,0,0,556,483a48.8,48.8,0,0,0,6.14,1.71L566.9,476a38.38,38.38,0,0,0,4.53.35l3.28,9.43a48.27,48.27,0,0,0,12.5-2.32l-.25-10a40,40,0,0,0,4.08-1.93l7.55,6.51a48.29,48.29,0,0,0,9.72-8.18l-5.2-8.53a37.45,37.45,0,0,0,2.6-3.72Zm-51.66,1.73a25.4,25.4,0,1,1,32.47-15.35A25.39,25.39,0,0,1,563.8,461.24Z" transform="translate(-93.58 -82)" fill="#5eeaea"/><path d="M582,410.44A28.56,28.56,0,1,0,599.25,447,28.55,28.55,0,0,0,582,410.44ZM566.37,454a17.75,17.75,0,1,1,22.71-10.73A17.75,17.75,0,0,1,566.37,454Z" transform="translate(-93.58 -82)" fill="#110239"/><rect x="45.64" y="141.29" width="6.28" height="3.67" fill="#110239"/><path d="M133.34,227h-5.88v-3.67h5.88Zm-11.76,0h-5.89v-3.67h5.89Zm-11.77,0h-5.88v-3.67h5.88Z" transform="translate(-93.58 -82)" fill="#110239"/><polygon points="3.67 145.75 0 145.75 0 141.29 4.46 141.29 4.46 144.96 3.67 144.96 3.67 145.75" fill="#110239"/><path d="M97.26,320.67H93.58v-5.16h3.68Zm0-10.32H93.58v-5.17h3.68Zm0-10.33H93.58v-5.16h3.68Zm0-10.33H93.58v-5.16h3.68Zm0-10.32H93.58v-5.16h3.68Zm0-10.32H93.58v-5.17h3.68Zm0-10.33H93.58v-5.16h3.68Zm0-10.33H93.58v-5.16h3.68Zm0-10.32H93.58v-5.16h3.68Z" transform="translate(-93.58 -82)" fill="#110239"/><polygon points="4.46 248.29 0 248.29 0 243.83 3.67 243.83 3.67 244.62 4.46 244.62 4.46 248.29" fill="#110239"/><path d="M180.88,330.29H175.7v-3.67h5.18Zm-10.35,0h-5.18v-3.67h5.18Zm-10.36,0H155v-3.67h5.17Zm-10.35,0h-5.18v-3.67h5.18Zm-10.36,0h-5.17v-3.67h5.17Zm-10.35,0h-5.18v-3.67h5.18Zm-10.36,0h-5.17v-3.67h5.17Zm-10.35,0h-5.18v-3.67h5.18Z" transform="translate(-93.58 -82)" fill="#110239"/><polygon points="96.94 249.08 93.26 249.08 93.26 248.29 92.48 248.29 92.48 244.62 96.94 244.62 96.94 249.08" fill="#110239"/><path d="M190.52,371h-3.67v-5h3.67Zm0-10h-3.67v-5h3.67Zm0-10h-3.67v-5h3.67Zm0-10h-3.67v-5h3.67Z" transform="translate(-93.58 -82)" fill="#110239"/><polygon points="97.73 298.39 93.26 298.39 93.26 293.93 96.94 293.93 96.94 294.72 97.73 294.72 97.73 298.39" fill="#110239"/><path d="M287.57,380.39h-5.35v-3.67h5.35Zm-10.7,0h-5.34v-3.67h5.34Zm-10.69,0h-5.35v-3.67h5.35Zm-10.7,0h-5.35v-3.67h5.35Zm-10.69,0h-5.35v-3.67h5.35Zm-10.7,0h-5.35v-3.67h5.35Zm-10.69,0h-5.35v-3.67h5.35Zm-10.7,0h-5.35v-3.67h5.35Zm-10.69,0h-5.35v-3.67H202Z" transform="translate(-93.58 -82)" fill="#110239"/><polygon points="203.8 299.18 200.12 299.18 200.12 298.39 199.33 298.39 199.33 294.72 203.8 294.72 203.8 299.18" fill="#110239"/><path d="M297.38,458.06H293.7v-5.49h3.68Zm0-11H293.7v-5.49h3.68Zm0-11H293.7V430.6h3.68Zm0-11H293.7v-5.49h3.68Zm0-11H293.7v-5.49h3.68Zm0-11H293.7v-5.49h3.68Zm0-11H293.7v-5.49h3.68Z" transform="translate(-93.58 -82)" fill="#110239"/><polygon points="204.58 386.01 200.12 386.01 200.12 381.55 203.8 381.55 203.8 382.34 204.58 382.34 204.58 386.01" fill="#110239"/><path d="M420.84,468h-5.11v-3.67h5.11Zm-10.22,0h-5.11v-3.67h5.11Zm-10.22,0h-5.12v-3.67h5.12Zm-10.23,0h-5.11v-3.67h5.11ZM380,468h-5.11v-3.67H380Zm-10.22,0h-5.12v-3.67h5.12Zm-10.23,0h-5.11v-3.67h5.11Zm-10.22,0h-5.11v-3.67h5.11Zm-10.22,0H334v-3.67h5.11Zm-10.23,0h-5.11v-3.67h5.11Zm-10.22,0H313.5v-3.67h5.11Zm-10.22,0h-5.11v-3.67h5.11Z" transform="translate(-93.58 -82)" fill="#110239"/><polygon points="336.83 386.01 332.37 386.01 332.37 382.34 333.16 382.34 333.16 381.55 336.83 381.55 336.83 386.01" fill="#110239"/><path d="M430.42,458.33h-3.68V453.1h3.68Zm0-10.46h-3.68v-5.24h3.68Zm0-10.46h-3.68v-5.23h3.68Zm0-10.46h-3.68v-5.23h3.68Zm0-10.46h-3.68v-5.23h3.68Zm0-10.46h-3.68V400.8h3.68Zm0-10.46h-3.68v-5.23h3.68Zm0-10.46h-3.68v-5.23h3.68Zm0-10.46h-3.68v-5.23h3.68Zm0-10.46h-3.68V359h3.68Zm0-10.46h-3.68V348.5h3.68Z" transform="translate(-93.58 -82)" fill="#110239"/><polygon points="336.83 261.27 333.16 261.27 333.16 256.81 337.62 256.81 337.62 260.48 336.83 260.48 336.83 261.27" fill="#110239"/><path d="M566.57,342.48h-5.21v-3.67h5.21Zm-10.42,0H551v-3.67h5.2Zm-10.41,0h-5.2v-3.67h5.2Zm-10.41,0h-5.21v-3.67h5.21Zm-10.41,0h-5.21v-3.67h5.21Zm-10.41,0H509.3v-3.67h5.21Zm-10.42,0h-5.2v-3.67h5.2Zm-10.41,0h-5.2v-3.67h5.2Zm-10.41,0h-5.21v-3.67h5.21Zm-10.41,0h-5.21v-3.67h5.21Zm-10.42,0h-5.2v-3.67h5.2Zm-10.41,0h-5.21v-3.67H452Zm-10.41,0h-5.21v-3.67h5.21Z" transform="translate(-93.58 -82)" fill="#110239"/><polygon points="482.65 261.27 478.98 261.27 478.98 260.48 478.19 260.48 478.19 256.81 482.65 256.81 482.65 261.27" fill="#110239"/><path d="M576.23,373.82h-3.67v-5.09h3.67Zm0-10.18h-3.67v-5.09h3.67Zm0-10.19h-3.67v-5.09h3.67Z" transform="translate(-93.58 -82)" fill="#110239"/><rect x="478.98" y="296.91" width="3.67" height="5" fill="#110239"/></g></svg>