<svg xmlns="http://www.w3.org/2000/svg" viewBox="0 0 1016.32 644.96">
  <defs>
    <style>
      .cls-1 {
        isolation: isolate;
      }

      .cls-2 {
        fill: #00bad1;
      }

      .cls-3 {
        fill: #00a1cc;
        opacity: 0.65;
        mix-blend-mode: multiply;
      }

      .cls-4 {
        fill: #110239;
      }

      .cls-5 {
        fill: #f88667;
      }

      .cls-6 {
        fill: #e45940;
      }

      .cls-7 {
        fill: #fd425f;
      }

      .cls-8 {
        fill: #e42244;
      }

      .cls-9 {
        fill: #01c7e2;
      }

      .cls-10 {
        fill: #e8466d;
      }

      .cls-11 {
        fill: #5eeaea;
      }
    </style>
  </defs>
  <title>final</title>
  <g class="cls-1">
    <g id="Layer_1" data-name="Layer 1">
      <path class="cls-2" d="M820.59,459.31s14.29,51.54,21.31,60,30,20.85,30,20.85L865.8,550.9s-41.72-21.26-49-38.65c-4.22-10.13-7-18.88-8.44-26.7-1.14-6.38-5.86-22.25-3.51-28.58C806.42,452.84,817.31,450.64,820.59,459.31Z" transform="translate(-291.63 -373)"/>
      <path class="cls-3" d="M820.59,459.31s14.29,51.54,21.31,60,30,20.85,30,20.85L865.8,550.9s-41.72-21.26-49-38.65c-4.22-10.13-7-18.88-8.44-26.7-1.14-6.38-5.86-22.25-3.51-28.58C806.42,452.84,817.31,450.64,820.59,459.31Z" transform="translate(-291.63 -373)"/>
      <path class="cls-4" d="M963.76,705.31l10.53-9.84s42.12-3.1,44.58.6-39.94,23.69-45.38,23.33S964.48,709.37,963.76,705.31Z" transform="translate(-291.63 -373)"/>
      <path class="cls-5" d="M886.57,562.84s39.82-10.14,43.1-3.58,44.62,136.21,44.62,136.21l-10.53,9.84s-44.33-109.43-57.17-120.87S880.63,567.35,886.57,562.84Z" transform="translate(-291.63 -373)"/>
      <path class="cls-6" d="M886.57,562.84s39.82-10.14,43.1-3.58,44.62,136.21,44.62,136.21l-10.53,9.84s-44.33-109.43-57.17-120.87S880.63,567.35,886.57,562.84Z" transform="translate(-291.63 -373)"/>
      <g>
        <path class="cls-5" d="M866,539a35.27,35.27,0,0,0,8.28-3.33c2.22-1.21,4.36-2.37,7-2,1.89.28,17.19,6.65,13.12,9.49-1.32.93-4.62-.69-5.94-1.16-1.88-.68-3.77-1.59-5.57-2.4,1.64-.08,9.92,3.43,9,5.36-1.53,3.4-9.91-1.14-11.86-2.23,1.49.23,6.67,2.17,6.67,4.06,0,3-6.17.49-7.51-.19a9.1,9.1,0,0,0-2.8-1.37c-1.29-.17-2.54.41-3.75.67a22.31,22.31,0,0,1-6.53.12c-1.27-.12-4.24.16-4.88-.94a4.7,4.7,0,0,1,.83-4.64C863.22,539.5,864.67,539.32,866,539Z" transform="translate(-291.63 -373)"/>
        <path class="cls-6" d="M866,539a35.27,35.27,0,0,0,8.28-3.33c2.22-1.21,4.36-2.37,7-2,1.89.28,17.19,6.65,13.12,9.49-1.32.93-4.62-.69-5.94-1.16-1.88-.68-3.77-1.59-5.57-2.4,1.64-.08,9.92,3.43,9,5.36-1.53,3.4-9.91-1.14-11.86-2.23,1.49.23,6.67,2.17,6.67,4.06,0,3-6.17.49-7.51-.19a9.1,9.1,0,0,0-2.8-1.37c-1.29-.17-2.54.41-3.75.67a22.31,22.31,0,0,1-6.53.12c-1.27-.12-4.24.16-4.88-.94a4.7,4.7,0,0,1,.83-4.64C863.22,539.5,864.67,539.32,866,539Z" transform="translate(-291.63 -373)"/>
      </g>
      <g>
        <polygon class="cls-4" points="643.39 97.13 652.76 100.97 620.58 178.61 611.11 173.5 643.39 97.13"/>
        <rect class="cls-4" x="553.28" y="172.14" width="61.26" height="9.52"/>
      </g>
      <path class="cls-4" d="M736.57,500.89c8.2-4.69,9.56-9.86,5-27s7.34-34.92,18.76-39.62c8.39-3.46,15.76-5,20.86-13.93s-4.56-28,11.6-42.15c11.78-10.29,28.68-2.07,28.68-2.07,3.63-2,5.13,19.19,5.4,35.13-20.47,31.33-14.64,72.27-7.18,107.34a15.77,15.77,0,0,0,.75,2.35c-1.61,27.15-2.9,49.62-2.9,49.62s-49.21,27.86-82.67,4S720.16,510.28,736.57,500.89Z" transform="translate(-291.63 -373)"/>
      <path class="cls-4" d="M881.26,698.88l12.49,7.18s15.3,39.35,12.49,42.79-34.35-31.23-35.6-36.54S877.59,700.75,881.26,698.88Z" transform="translate(-291.63 -373)"/>
      <path class="cls-5" d="M865.33,560.51s80.27,5.62,87.76,12.8-60.65,132-60.65,132l-11.18-6.43s16.86-59.35,21.24-73.09,12.8-30.3,11.24-32.49-82.46,10-81.83-12.8S865.33,560.51,865.33,560.51Z" transform="translate(-291.63 -373)"/>
      <path class="cls-5" d="M825.74,425.11s-8.43,23-3.28,40.06l-28.11-6.8s11.5-38.42,16.42-45S825.74,425.11,825.74,425.11Z" transform="translate(-291.63 -373)"/>
      <path class="cls-6" d="M814,445.72c-9.21,0-14,6.8-14.42,13.92l-5.26-1.27s11.5-38.42,16.42-45,15,11.71,15,11.71A94.43,94.43,0,0,0,821,447.39,14.88,14.88,0,0,0,814,445.72Z" transform="translate(-291.63 -373)"/>
      <path class="cls-5" d="M828.65,395.19s10.92,5.21,13.53,9.62.32,10.48.54,14.5,1.33,10,.72,11-4.63,0-5.28.87-5.87,4.13-7.5,7.83-3.81,4-7.61,2.17-18.37-21.08-18.53-30.11S817.83,391.49,828.65,395.19Z" transform="translate(-291.63 -373)"/>
      <path class="cls-4" d="M819.4,383s5.09,10.19,5.62,14.23-3.34,16-5.62,17.57-.35-13.35-6.15-8.79.35,13.18,0,14.94-3,7.38-9,7.91-15.82-29.17-9.32-36.55S812.55,383,819.4,383Z" transform="translate(-291.63 -373)"/>
      <path class="cls-4" d="M818.4,377s9.61-7.2,19.62.88S847.69,398.06,856,397c0,0-5.45,14.06-17.4,10.72S814.24,385.41,818.4,377Z" transform="translate(-291.63 -373)"/>
      <path class="cls-7" d="M785.68,535.83,822.91,533s19.38,21.64,38.52,21.64h65.43s-3.54,29.86-19.29,51.47c0,0-62.16,2-92.46-.55S756,569.68,785.68,535.83Z" transform="translate(-291.63 -373)"/>
      <path class="cls-8" d="M782.21,540.2c1.06-1.45,2.19-2.91,3.47-4.37L822.91,533s18.87,21,37.75,21.59C837.85,556.92,794.28,562,782.21,540.2Z" transform="translate(-291.63 -373)"/>
      <path class="cls-8" d="M909.58,559c-9.49-.93-18.7-3.19-28-4.37h41.05C918.54,556.74,916.54,559.71,909.58,559Z" transform="translate(-291.63 -373)"/>
      <path class="cls-2" d="M797.92,445.41s17.09,6.72,22.89,7.34c0,0,12,26.55,16.72,33.73S825.65,521.15,824.72,533c0,0-10,9.5-40.11,3.66C784.61,536.68,776.74,462.11,797.92,445.41Z" transform="translate(-291.63 -373)"/>
      <path class="cls-3" d="M793.35,461.27c5.23-2.4,14.32.05,16.87,5.29,3.15,6.49-.09,18,.29,25,.4,7.38.87,17.19,2.73,24.38,1.46,5.61,5.12,12.54,9.83,18.21-3.87,2.33-15.07,7-38.46,2.49,0,0-4.8-45.47,3.18-73.35C790,462.59,792,461.89,793.35,461.27Z" transform="translate(-291.63 -373)"/>
      <path class="cls-5" d="M860.18,539a35.37,35.37,0,0,0,8.27-3.33c2.22-1.21,4.36-2.37,7-2,1.89.28,17.2,6.65,13.12,9.49-1.32.93-4.62-.69-5.94-1.16-1.88-.68-3.77-1.59-5.57-2.4,1.65-.08,9.92,3.43,9,5.36-1.52,3.4-9.9-1.14-11.85-2.23,1.49.23,6.67,2.17,6.66,4.06,0,3-6.17.49-7.5-.19a9.26,9.26,0,0,0-2.81-1.37c-1.28-.17-2.54.41-3.75.67a22.25,22.25,0,0,1-6.52.12c-1.28-.12-4.25.16-4.88-.94a4.7,4.7,0,0,1,.82-4.64C857.37,539.5,858.81,539.32,860.18,539Z" transform="translate(-291.63 -373)"/>
      <path class="cls-2" d="M862.75,538.58l-3.28,12.32s-80.58-9.37-82.46-23.66,3.29-80.81,22.73-73.9S800,508.5,803,512.25,862.75,538.58,862.75,538.58Z" transform="translate(-291.63 -373)"/>
      <path class="cls-9" d="M1263.85,850.25H1134.74c-24.11,0-41.35-20.39-33.71-40.16.12-.33.24-.66.39-1,12.16-26.72,48-19.67,57.55-7.26,0,0-24.25-43.94,27.54-43.94,43.46,0,30,42.71,30,42.71s8.17-33,33.68-30.44c41.32,4.05,16.75,45.19,16.75,45.19s41.41-9.3,41,13S1263.85,850.25,1263.85,850.25Z" transform="translate(-291.63 -373)"/>
      <path class="cls-9" d="M461.35,864.2H372.77c-16.54,0-28.36-14-23.13-27.55.09-.22.17-.45.27-.68,8.34-18.33,33-13.5,39.49-5,0,0-16.64-30.15,18.9-30.15,29.81,0,20.58,29.3,20.58,29.3s5.61-22.6,23.11-20.88c28.35,2.78,11.49,31,11.49,31s28.41-6.39,28.13,8.9S461.35,864.2,461.35,864.2Z" transform="translate(-291.63 -373)"/>
      <path class="cls-9" d="M793.82,1018H614.19c-33.54,0-57.53-28.36-46.9-55.87.17-.45.33-.92.54-1.37,16.91-37.18,66.84-27.38,80.07-10.11,0,0-33.74-61.13,38.32-61.13,60.46,0,41.75,59.42,41.75,59.42s11.37-45.84,46.87-42.35c57.49,5.64,23.3,62.88,23.3,62.88s57.61-12.95,57,18S793.82,1018,793.82,1018Z" transform="translate(-291.63 -373)"/>
      <g>
        <path class="cls-10" d="M518.11,617.19a62.17,62.17,0,0,0,0-18.07l-13.93-2.18a54,54,0,0,0-1.7-6.23l11-8.92a69.13,69.13,0,0,0-9.09-15.6l-13.22,5.09a55.32,55.32,0,0,0-4.53-4.53l5.1-13.22a69,69,0,0,0-15.61-9.08l-8.92,11a56,56,0,0,0-6.23-1.7l-2.18-13.93a62.17,62.17,0,0,0-18.07,0l-2.18,13.93a56,56,0,0,0-6.23,1.7l-8.91-11a68.79,68.79,0,0,0-15.61,9.08l5.1,13.22a55.45,55.45,0,0,0-4.54,4.53l-13.22-5.09a68.72,68.72,0,0,0-9.08,15.6l11,8.92a56,56,0,0,0-1.7,6.23l-13.93,2.18a62.17,62.17,0,0,0,0,18.07l13.93,2.18a56,56,0,0,0,1.7,6.23l-11,8.92a69,69,0,0,0,9.08,15.61l13.22-5.1a57.07,57.07,0,0,0,4.54,4.53l-5.1,13.22a69.2,69.2,0,0,0,15.61,9.09l8.91-11a54,54,0,0,0,6.23,1.7l2.18,13.93a62.17,62.17,0,0,0,18.07,0L461,662.52a54,54,0,0,0,6.23-1.7l8.92,11a69.42,69.42,0,0,0,15.61-9.09l-5.1-13.22a55.32,55.32,0,0,0,4.53-4.53l13.22,5.1a69.42,69.42,0,0,0,9.09-15.61l-11-8.92a54,54,0,0,0,1.7-6.23Zm-68.29,27.06a36.1,36.1,0,1,1,36.09-36.09A36.09,36.09,0,0,1,449.82,644.25Z" transform="translate(-291.63 -373)"/>
        <path class="cls-4" d="M449.82,567.57a40.59,40.59,0,1,0,40.59,40.59A40.59,40.59,0,0,0,449.82,567.57Zm0,65.82a25.24,25.24,0,1,1,25.23-25.23A25.24,25.24,0,0,1,449.82,633.39Z" transform="translate(-291.63 -373)"/>
      </g>
      <g>
        <path class="cls-11" d="M1119.53,971.88a75.4,75.4,0,0,0,4.09-9.25,77.24,77.24,0,0,0,2.71-9.74l-13.82-7.53a60.34,60.34,0,0,0,.56-7.19l15-5.21a76.69,76.69,0,0,0-3.68-19.83l-15.81.39a60.59,60.59,0,0,0-3.06-6.47l10.33-12a76.33,76.33,0,0,0-13-15.42l-13.53,8.25a61.58,61.58,0,0,0-5.9-4.13l2.95-15.46a69.82,69.82,0,0,0-19-6.8l-7.53,13.82a60.31,60.31,0,0,0-7.19-.55l-5.22-15a77,77,0,0,0-19.82,3.68l.39,15.81a61.63,61.63,0,0,0-6.47,3.06l-12-10.33a76.66,76.66,0,0,0-15.42,13l8.25,13.53a61.58,61.58,0,0,0-4.13,5.9l-15.46-2.94a69.51,69.51,0,0,0-6.8,19L989.81,928a58.15,58.15,0,0,0-.55,7.19l-15,5.21A77,77,0,0,0,978,960.25l15.81-.39a58.81,58.81,0,0,0,3.06,6.47l-10.33,12a76.61,76.61,0,0,0,13,15.42l13.53-8.26a61.67,61.67,0,0,0,5.9,4.14l-2.94,15.45a75.26,75.26,0,0,0,9.24,4.09,77.24,77.24,0,0,0,9.74,2.71l7.54-13.81a62.3,62.3,0,0,0,7.18.55l5.22,15a76.61,76.61,0,0,0,19.82-3.68l-.39-15.81a60.62,60.62,0,0,0,6.47-3.05l12,10.33a76.77,76.77,0,0,0,15.43-13l-8.26-13.52a63.67,63.67,0,0,0,4.14-5.91Zm-82,2.74a40.29,40.29,0,1,1,51.51-24.35A40.29,40.29,0,0,1,1037.58,974.62Z" transform="translate(-291.63 -373)"/>
        <path class="cls-4" d="M1066.43,894A45.31,45.31,0,1,0,1093.82,952,45.3,45.3,0,0,0,1066.43,894Zm-24.76,69.17a28.17,28.17,0,1,1,36-17A28.16,28.16,0,0,1,1041.67,963.21Z" transform="translate(-291.63 -373)"/>
      </g>
      <g>
        <rect class="cls-4" x="72.4" y="224.14" width="9.97" height="5.82"/>
        <path class="cls-4" d="M354.7,603h-9.33v-5.82h9.33ZM336,603H326.7v-5.82H336Zm-18.67,0H308v-5.82h9.33Z" transform="translate(-291.63 -373)"/>
        <polygon class="cls-4" points="5.83 231.21 0 231.21 0 224.14 7.08 224.14 7.08 229.96 5.83 229.96 5.83 231.21"/>
        <path class="cls-4" d="M297.46,751.63h-5.83v-8.19h5.83Zm0-16.38h-5.83v-8.19h5.83Zm0-16.38h-5.83v-8.2h5.83Zm0-16.38h-5.83V694.3h5.83Zm0-16.38h-5.83v-8.19h5.83Zm0-16.38h-5.83v-8.19h5.83Zm0-16.38h-5.83v-8.19h5.83Zm0-16.38h-5.83v-8.19h5.83Zm0-16.38h-5.83V612.4h5.83Z" transform="translate(-291.63 -373)"/>
        <polygon class="cls-4" points="7.08 393.89 0 393.89 0 386.82 5.83 386.82 5.83 388.07 7.08 388.07 7.08 393.89"/>
        <path class="cls-4" d="M430.12,766.89h-8.21v-5.82h8.21Zm-16.43,0h-8.21v-5.82h8.21Zm-16.42,0h-8.22v-5.82h8.22Zm-16.43,0h-8.21v-5.82h8.21Zm-16.43,0H356.2v-5.82h8.21Zm-16.42,0h-8.22v-5.82H348Zm-16.43,0h-8.21v-5.82h8.21Zm-16.43,0h-8.21v-5.82h8.21Z" transform="translate(-291.63 -373)"/>
        <polygon class="cls-4" points="153.78 395.14 147.95 395.14 147.95 393.89 146.71 393.89 146.71 388.07 153.78 388.07 153.78 395.14"/>
        <path class="cls-4" d="M445.41,831.39h-5.83v-7.9h5.83Zm0-15.8h-5.83v-7.91h5.83Zm0-15.81h-5.83v-7.92h5.83Zm0-15.82h-5.83v-7.9h5.83Z" transform="translate(-291.63 -373)"/>
        <polygon class="cls-4" points="155.03 473.37 147.95 473.37 147.95 466.3 153.78 466.3 153.78 467.55 155.03 467.55 155.03 473.37"/>
        <path class="cls-4" d="M599.37,846.37h-8.48v-5.82h8.48Zm-17,0h-8.48v-5.82h8.48Zm-17,0H557v-5.82h8.49Zm-17,0H540v-5.82h8.49Zm-17,0H523v-5.82h8.48Zm-17,0h-8.48v-5.82h8.48Zm-17,0h-8.49v-5.82h8.49Zm-17,0h-8.49v-5.82h8.49Zm-17,0h-8.48v-5.82h8.48Z" transform="translate(-291.63 -373)"/>
        <polygon class="cls-4" points="323.3 474.63 317.47 474.63 317.47 473.37 316.23 473.37 316.23 467.55 323.3 467.55 323.3 474.63"/>
        <path class="cls-4" d="M614.93,969.58H609.1v-8.71h5.83Zm0-17.42H609.1v-8.71h5.83Zm0-17.42H609.1V926h5.83Zm0-17.42H609.1v-8.71h5.83Zm0-17.43H609.1v-8.71h5.83Zm0-17.42H609.1v-8.71h5.83Zm0-17.43H609.1v-8.7h5.83Z" transform="translate(-291.63 -373)"/>
        <polygon class="cls-4" points="324.55 612.37 317.47 612.37 317.47 605.3 323.3 605.3 323.3 606.55 324.55 606.55 324.55 612.37"/>
        <path class="cls-4" d="M810.8,985.37h-8.11v-5.82h8.11Zm-16.22,0h-8.11v-5.82h8.11Zm-16.22,0h-8.11v-5.82h8.11Zm-16.22,0H754v-5.82h8.11Zm-16.22,0h-8.11v-5.82h8.11Zm-16.22,0h-8.1v-5.82h8.1Zm-16.21,0h-8.11v-5.82h8.11Zm-16.22,0h-8.11v-5.82h8.11Zm-16.22,0h-8.11v-5.82h8.11Zm-16.22,0h-8.11v-5.82h8.11Zm-16.22,0h-8.1v-5.82h8.1Zm-16.21,0h-8.11v-5.82h8.11Z" transform="translate(-291.63 -373)"/>
        <polygon class="cls-4" points="534.36 612.37 527.28 612.37 527.28 606.55 528.53 606.55 528.53 605.3 534.36 605.3 534.36 612.37"/>
        <path class="cls-4" d="M826,970h-5.84v-8.29H826Zm0-16.59h-5.84v-8.3H826Zm0-16.59h-5.84v-8.3H826Zm0-16.59h-5.84v-8.3H826Zm0-16.6h-5.84v-8.29H826ZM826,887h-5.84v-8.29H826Zm0-16.6h-5.84v-8.29H826Zm0-16.58h-5.84v-8.3H826Zm0-16.6h-5.84V829H826Zm0-16.59h-5.84v-8.3H826Zm0-16.6h-5.84v-8.29H826Z" transform="translate(-291.63 -373)"/>
        <polygon class="cls-4" points="534.36 414.48 528.53 414.48 528.53 407.41 535.61 407.41 535.61 413.23 534.36 413.23 534.36 414.48"/>
        <path class="cls-4" d="M1042,786.23h-8.25v-5.82H1042Zm-16.51,0h-8.27v-5.82h8.27Zm-16.52,0h-8.26v-5.82h8.26Zm-16.53,0h-8.25v-5.82h8.25Zm-16.51,0h-8.26v-5.82h8.26Zm-16.52,0h-8.26v-5.82h8.26Zm-16.51,0h-8.26v-5.82h8.26Zm-16.53,0h-8.25v-5.82h8.25Zm-16.51,0h-8.27v-5.82h8.27Zm-16.52,0h-8.26v-5.82h8.26Zm-16.52,0h-8.26v-5.82h8.26Zm-16.52,0H852v-5.82h8.26Zm-16.52,0h-8.26v-5.82h8.26Z" transform="translate(-291.63 -373)"/>
        <polygon class="cls-4" points="765.68 414.48 759.86 414.48 759.86 413.23 758.61 413.23 758.61 407.41 765.68 407.41 765.68 414.48"/>
        <path class="cls-4" d="M1057.31,836h-5.82v-8.08h5.82Zm0-16.16h-5.82v-8.07h5.82Zm0-16.16h-5.82v-8.07h5.82Z" transform="translate(-291.63 -373)"/>
        <rect class="cls-4" x="759.86" y="471.02" width="5.82" height="7.94"/>
      </g>
    </g>
  </g>
</svg>
