<svg width="222" height="42" viewBox="0 0 222 42" fill="none" xmlns="http://www.w3.org/2000/svg">
<path d="M98.2739 13.6359V28.4883H102.193V31.5H91.3014V28.4883H95.2204V13.6359H91.3014V10.6567H102.193V13.6359H98.2739Z" fill="black"/>
<path d="M106.162 10.6567L108.541 10.6892L118.946 25.3521V10.6892H121.996V31.5H119.553L109.237 16.9563V31.5H106.153V10.6589H106.162V10.6567Z" fill="black"/>
<path d="M125.956 31.5V10.6567H139.024V13.6685H129.122V19.5421H137.894V22.5842H129.122V31.5H125.956ZM143.668 13.6381V28.6642H147.739V31.4935H136.424V28.6642H140.496V10.6589H147.732V13.6381H143.668Z" fill="black"/>
<path d="M151.709 10.6567L154.087 10.6892L164.492 25.3521V10.6892H167.542V31.5H165.099L154.783 16.9563V31.5H151.7V10.6589H151.709V10.6567Z" fill="black"/>
<path d="M179.465 13.6359V28.4883H183.384V31.5H172.493V28.4883H176.412V13.6359H172.493V10.6567H183.384V13.6359H179.465Z" fill="black"/>
<path d="M192.766 13.4465H186.355V10.6567H202.197V13.4465H195.817V31.5H192.764V13.4465H192.766Z" fill="black"/>
<path d="M212.58 19.8092L218.362 10.6567H222L214.122 23.0033V31.5H211.032V23.0033L203.187 10.6567H206.792L212.58 19.8092Z" fill="black"/>
<path d="M81.697 16.0804L67.2228 2.03599C65.8674 0.720911 64.0663 0 62.1525 0C60.2387 0 58.4376 0.720911 57.0823 2.03599L42.2455 17.3479L26.7131 2.03599C25.3577 0.720911 23.5566 0 21.6428 0C19.729 0 17.9279 0.720911 16.5726 2.03599L2.09831 16.0804C0.742983 17.3954 0 19.143 0 21C0 22.8569 0.742983 24.6046 2.09831 25.9196L16.5726 39.964C17.9279 41.2791 19.729 42 21.6428 42C23.5566 42 25.3577 41.2791 26.7131 39.964C26.7131 39.964 41.9238 24.8074 42.1377 24.5253C42.3516 24.8074 57.0806 39.964 57.0806 39.964C58.436 41.2791 60.2371 42 62.1509 42C64.0647 42 65.8658 41.2791 67.2211 39.964L81.6954 25.9196C84.4975 23.2024 84.4975 18.7913 81.697 16.0804ZM38.7282 20.9873L23.137 36.4846C22.3401 37.2578 20.9554 37.2578 20.165 36.4846L5.69076 22.4402C5.29232 22.0536 5.07187 21.5403 5.07187 20.9984C5.07187 20.4502 5.29232 19.9432 5.69076 19.5566L20.165 5.51222C20.5635 5.12562 21.0925 4.91173 21.651 4.91173C22.216 4.91173 22.7385 5.12562 23.137 5.51222L38.7282 20.9873ZM78.1193 22.4418L63.645 36.4862C62.8253 37.2816 61.4879 37.2816 60.6731 36.4862L45.6469 20.9952L60.6731 5.5043C61.0829 5.10661 61.6234 4.91014 62.1591 4.91014C62.6947 4.91014 63.2352 5.10661 63.645 5.5043L78.1193 19.5534C78.939 20.3472 78.939 21.6449 78.1193 22.4418Z" fill="url(#paint0_linear)"/>
<defs>
<linearGradient id="paint0_linear" x1="40.8249" y1="58.7339" x2="42.1988" y2="7.52667" gradientUnits="userSpaceOnUse">
<stop stop-color="#40D2FA"/>
<stop offset="0.4559" stop-color="#30ADEB"/>
<stop offset="0.8883" stop-color="#352998"/>
</linearGradient>
</defs>
</svg>
