<svg width="88" height="44" viewBox="0 0 88 44" fill="none" xmlns="http://www.w3.org/2000/svg">
<path d="M85.7945 16.8461L70.5943 2.13294C69.171 0.75524 67.2795 0 65.2697 0C63.26 0 61.3685 0.75524 59.9452 2.13294L44.3643 18.174L28.0529 2.13294C26.6296 0.75524 24.7381 0 22.7283 0C20.7185 0 18.8271 0.75524 17.4038 2.13294L2.20355 16.8461C0.780247 18.2238 0 20.0546 0 22C0 23.9454 0.780247 25.7762 2.20355 27.1539L17.4038 41.8671C18.8271 43.2448 20.7185 44 22.7283 44C24.7381 44 26.6296 43.2448 28.0529 41.8671C28.0529 41.8671 44.0265 25.9887 44.2511 25.6932C44.4758 25.9887 59.9435 41.8671 59.9435 41.8671C61.3668 43.2448 63.2583 44 65.268 44C67.2778 44 69.1693 43.2448 70.5926 41.8671L85.7928 27.1539C88.7354 24.3072 88.7354 19.6861 85.7945 16.8461ZM40.6706 21.9867L24.2974 38.222C23.4606 39.032 22.0064 39.032 21.1764 38.222L5.97617 23.5088C5.55776 23.1038 5.32625 22.566 5.32625 21.9983C5.32625 21.424 5.55776 20.8929 5.97617 20.4879L21.1764 5.77471C21.5948 5.3697 22.1504 5.14562 22.7369 5.14562C23.3302 5.14562 23.879 5.3697 24.2974 5.77471L40.6706 21.9867ZM82.0373 23.5105L66.8371 38.2236C65.9763 39.0569 64.5718 39.0569 63.7161 38.2236L47.9363 21.995L63.7161 5.76641C64.1465 5.34978 64.7142 5.14396 65.2766 5.14396C65.8391 5.14396 66.4067 5.34978 66.8371 5.76641L82.0373 20.4845C82.8982 21.3161 82.8982 22.6756 82.0373 23.5105Z" fill="url(#paint0_linear)"/>
<defs>
<linearGradient id="paint0_linear" x1="42.8724" y1="61.5307" x2="44.3083" y2="7.8849" gradientUnits="userSpaceOnUse">
<stop stop-color="#38A5DF" stop-opacity="0"/>
<stop offset="0.4559" stop-color="#3E9EC9"/>
<stop offset="0.8883" stop-color="#366495"/>
</linearGradient>
</defs>
</svg>
