<svg width="821" height="475" viewBox="0 0 821 475" fill="none" xmlns="http://www.w3.org/2000/svg">
<path d="M532.983 421.267V421.298C532.25 424.262 531.221 426.976 529.895 429.409C517.76 451.59 465.226 447.94 465.226 447.94H345.293C295.66 447.94 275.773 446.708 271.015 431.219C270.735 430.392 270.532 429.503 270.36 428.583C266.991 410.567 283.743 351.981 314.721 311.785C330.568 291.243 346.946 280.418 361.546 274.756C375.491 269.359 387.797 268.657 396.439 268.657C411.662 268.657 423.938 269.78 434.357 272.229C462.34 278.78 476.987 294.612 498.933 322.657C525.777 356.941 538.989 397.2 532.983 421.267Z" fill="url(#paint0_linear)"/>
<path opacity="0.22" d="M322.052 407.042C335.06 386.577 339.163 358.174 342.781 329.364L354.09 387.966H452.045L470.045 329.364C469.624 356.754 473.383 383.614 486.376 409.319C486.361 409.304 422.316 481.787 322.052 407.042Z" fill="#1F395E"/>
<path d="M351.797 447.94H345.293C295.66 447.94 275.773 446.708 271.015 431.219C268.426 419.037 271.717 406.231 286.566 402.409C309.823 396.435 350.315 419.988 350.315 419.988L351.797 447.94Z" fill="url(#paint1_linear)"/>
<path d="M532.983 421.267C532.983 421.267 533.014 421.267 532.983 421.298C532.25 424.262 531.221 426.976 529.895 429.409C517.76 451.59 465.226 447.94 465.226 447.94H429.631L434.155 417.805C434.155 417.805 497.248 388.59 519.85 397.714C530.909 402.144 534.294 411.394 532.983 421.267Z" fill="url(#paint2_linear)"/>
<path d="M434.357 272.229C433.297 286.314 427.479 311.988 399.09 311.988C369.174 311.988 362.841 286.688 361.546 274.771C375.491 269.374 387.798 268.672 396.439 268.672C411.647 268.657 423.938 269.78 434.357 272.229Z" fill="#1F395E"/>
<path d="M460.203 447.924H345.293C342.517 447.924 340.271 445.678 340.271 442.902C340.271 440.125 342.517 437.879 345.293 437.879H460.203C462.98 437.879 465.226 440.125 465.226 442.902C465.226 445.678 462.98 447.924 460.203 447.924Z" fill="white"/>
<path d="M474.117 361.543L473.696 364.148V364.179L461.794 437.895H344.669L332.893 361.496C332.316 357.752 335.232 354.368 338.991 354.368H468.018C471.824 354.352 474.709 357.768 474.117 361.543Z" fill="#F42222"/>
<path d="M473.68 364.179L461.779 437.895H345.293L384.771 433.777C425.311 429.581 459.844 402.503 473.68 364.179Z" fill="#CC0606"/>
<path d="M398.607 301.303H397.827C393.303 301.303 389.56 300.367 386.518 299.01C379.14 295.688 374.664 287.983 374.835 279.903C374.866 279.076 374.867 278.265 374.867 277.47C374.898 270.762 374.461 265.194 374.461 265.194V262.184L416.653 260.296C416.809 266.379 417.511 271.776 418.338 276.097C418.369 276.175 418.369 276.222 418.385 276.3C420.818 288.981 411.522 300.976 398.607 301.303Z" fill="#D17D6D"/>
<path d="M418.351 276.094C400.772 296.746 382.71 284.689 374.88 277.483C374.911 270.776 374.474 265.207 374.474 265.207V262.197L416.667 260.309C416.823 266.361 417.524 271.774 418.351 276.094Z" fill="#A8675E"/>
<path d="M361.562 241.672C361.562 241.672 374.648 278.546 396.47 278.546C418.291 278.546 427.369 238.833 427.369 238.833V204.299H359.908L361.562 241.672Z" fill="#D17D6D"/>
<path d="M354.542 220.865C354.542 220.865 348.116 222.034 349.208 229.412C350.3 236.79 357.007 245.743 362.451 241.033L354.542 220.865Z" fill="#D17D6D"/>
<path d="M432.454 217.776C432.454 217.776 438.974 218.072 438.896 225.528C438.818 232.984 433.39 242.764 427.354 238.833L432.454 217.776Z" fill="#D17D6D"/>
<path d="M432.454 217.776C432.454 217.776 430.193 230.676 427.354 238.833C427.354 238.833 422.191 237.788 420.506 224.187C420.506 224.187 409.338 226.371 402.319 215.811C402.319 215.811 400.65 226.277 389.872 218.852C382.681 224.717 374.18 225.341 364.541 221.364C364.541 221.364 366.163 235.09 361.562 241.672C361.562 241.672 359.893 236.244 354.542 220.865C354.542 220.865 352.25 220.943 350.783 223.033C350.783 223.033 339.225 200.416 344.669 189.544C350.113 178.656 357.444 182.852 357.444 182.852C357.444 182.852 354.73 167.987 370.842 162.544C386.955 157.1 386.955 149.769 389.466 151.235C391.978 152.701 393.023 158.145 393.023 158.145C393.023 158.145 420.865 155.213 428.399 185.145C428.399 185.145 448.505 185.785 436.572 219.492C436.557 219.476 435.777 218.088 432.454 217.776Z" fill="url(#paint3_linear)"/>
<path d="M791.27 464.255H27.7184C26.221 464.255 24.9888 463.039 24.9888 461.526V450.654C24.9888 449.157 26.2054 447.924 27.7184 447.924H791.27C792.768 447.924 794 449.141 794 450.654V461.526C793.985 463.039 792.768 464.255 791.27 464.255Z" fill="#C1C8D3"/>
<path d="M215.424 407.666H182.778V435.929C182.778 442.512 188.112 447.862 194.71 447.862H203.508C210.09 447.862 215.44 442.527 215.44 435.929V407.666H215.424Z" fill="#E53838"/>
<path d="M193.135 407.666V398.947C193.135 397.512 194.289 396.357 195.724 396.357H199.015C200.45 396.357 201.605 395.203 201.605 393.768V390.477C201.605 389.042 200.45 387.888 199.015 387.888H188.424C181.14 387.888 175.244 381.992 175.244 374.707C175.244 367.423 181.14 361.527 188.424 361.527H202.478C203.913 361.527 205.067 360.373 205.067 358.938V357.768C205.067 350.218 211.182 344.104 218.731 344.104C226.281 344.104 232.395 350.218 232.395 357.768C232.395 365.91 225.782 372.524 217.639 372.524H192.917C191.482 372.524 190.327 373.678 190.327 375.113C190.327 376.548 191.482 377.702 192.917 377.702H206.425C211.416 377.702 215.456 381.742 215.456 386.733V392.38C215.456 397.371 211.416 401.411 206.425 401.411C204.989 401.411 203.835 402.565 203.835 404V407.697H193.135V407.666Z" fill="#CCCCCC"/>
<path opacity="0.6" d="M642.247 384.83H556.536C553.245 384.83 550.578 382.163 550.578 378.872V270.56C550.578 267.269 553.245 264.601 556.536 264.601H642.247C645.539 264.601 648.206 267.269 648.206 270.56V378.872C648.221 382.163 645.539 384.83 642.247 384.83Z" fill="#9ABCED"/>
<path d="M647.691 380.853H561.98C558.003 380.853 554.758 377.609 554.758 373.631V265.319C554.758 261.341 558.003 258.097 561.98 258.097H647.691C651.669 258.097 654.913 261.341 654.913 265.319V373.631C654.913 377.609 651.669 380.853 647.691 380.853ZM561.98 260.608C559.375 260.608 557.27 262.714 557.27 265.319V373.631C557.27 376.236 559.375 378.342 561.98 378.342H647.691C650.296 378.342 652.402 376.236 652.402 373.631V265.319C652.402 262.714 650.296 260.608 647.691 260.608H561.98Z" fill="#4F7EB7"/>
<path opacity="0.71" d="M584.27 303.05H565.224V280.23H584.27V303.05ZM567.736 300.539H581.758V282.742H567.736V300.539Z" fill="#7CA6D8"/>
<path d="M579.481 295.984L573.819 289.667L575.691 287.983L579.122 291.82C580.869 289.527 585.128 284.925 593.223 281.587L594.174 283.912C584.082 288.061 580.386 294.393 580.355 294.456L579.481 295.984Z" fill="#EA9BA1"/>
<path d="M632.857 288.794H603.315C602.285 288.794 601.443 287.951 601.443 286.922C601.443 285.893 602.285 285.05 603.315 285.05H632.857C633.887 285.05 634.729 285.893 634.729 286.922C634.713 287.951 633.887 288.794 632.857 288.794Z" fill="#9ABCED"/>
<path d="M632.857 297.841H603.315C602.285 297.841 601.443 296.998 601.443 295.969C601.443 294.939 602.285 294.097 603.315 294.097H632.857C633.887 294.097 634.729 294.939 634.729 295.969C634.713 297.014 633.887 297.841 632.857 297.841Z" fill="#9ABCED"/>
<path opacity="0.71" d="M584.27 338.005H565.224V315.185H584.27V338.005ZM567.736 335.494H581.758V317.697H567.736V335.494Z" fill="#7CA6D8"/>
<path d="M579.481 330.939L573.819 324.622L575.691 322.938L579.122 326.775C580.869 324.482 585.128 319.881 593.223 316.543L594.174 318.867C584.082 323.016 580.386 329.348 580.355 329.426L579.481 330.939Z" fill="#EA9BA1"/>
<path d="M632.857 323.749H603.315C602.285 323.749 601.443 322.906 601.443 321.877C601.443 320.848 602.285 320.005 603.315 320.005H632.857C633.887 320.005 634.729 320.848 634.729 321.877C634.713 322.906 633.887 323.749 632.857 323.749Z" fill="#9ABCED"/>
<path d="M632.857 332.796H603.315C602.285 332.796 601.443 331.953 601.443 330.924C601.443 329.894 602.285 329.052 603.315 329.052H632.857C633.887 329.052 634.729 329.894 634.729 330.924C634.713 331.969 633.887 332.796 632.857 332.796Z" fill="#9ABCED"/>
<path opacity="0.71" d="M584.27 372.96H565.224V350.141H584.27V372.96ZM567.736 370.449H581.758V352.652H567.736V370.449Z" fill="#7CA6D8"/>
<path d="M579.481 365.895L573.819 359.577L575.691 357.893L579.122 361.73C580.869 359.437 585.128 354.836 593.223 351.498L594.174 353.822C584.082 357.971 580.386 364.303 580.355 364.366L579.481 365.895Z" fill="#EA9BA1"/>
<path d="M632.857 358.688H603.315C602.285 358.688 601.443 357.846 601.443 356.816C601.443 355.787 602.285 354.945 603.315 354.945H632.857C633.887 354.945 634.729 355.787 634.729 356.816C634.713 357.862 633.887 358.688 632.857 358.688Z" fill="#9ABCED"/>
<path d="M632.857 367.751H603.315C602.285 367.751 601.443 366.908 601.443 365.879C601.443 364.849 602.285 364.007 603.315 364.007H632.857C633.887 364.007 634.729 364.849 634.729 365.879C634.713 366.924 633.887 367.751 632.857 367.751Z" fill="#9ABCED"/>
<path opacity="0.6" d="M578.358 145.885H492.647C489.356 145.885 486.689 143.218 486.689 139.927V31.6143C486.689 28.3231 489.356 25.6559 492.647 25.6559H578.358C581.649 25.6559 584.316 28.3231 584.316 31.6143V139.927C584.316 143.202 581.649 145.885 578.358 145.885Z" fill="#9ABCED"/>
<path d="M585.892 140.285H500.181C496.203 140.285 492.959 137.041 492.959 133.064V24.7512C492.959 20.7737 496.203 17.5293 500.181 17.5293H585.892C589.869 17.5293 593.114 20.7737 593.114 24.7512V133.064C593.114 137.041 589.869 140.285 585.892 140.285ZM500.181 20.0406C497.576 20.0406 495.47 22.1463 495.47 24.7512V133.064C495.47 135.653 497.576 137.774 500.181 137.774H585.892C588.497 137.774 590.602 135.668 590.602 133.064V24.7512C590.602 22.1619 588.497 20.0406 585.892 20.0406H500.181Z" fill="#4F7EB7"/>
<g opacity="0.5">
<path opacity="0.5" d="M528.069 61.2488C529.988 53.1518 524.981 45.0317 516.884 43.1119C508.787 41.1921 500.667 46.1996 498.747 54.2966C496.827 62.3935 501.835 70.5137 509.932 72.4335C518.029 74.3533 526.149 69.3457 528.069 61.2488Z" fill="#7CA6D8"/>
<path opacity="0.5" d="M517.401 55.7755L527.446 37.8846C536.649 40.1931 541.048 48.8656 536.649 57.7721L517.401 55.7755Z" fill="#E83F54"/>
<g opacity="0.5">
<path opacity="0.5" d="M507.98 89.1551C507.98 91.5884 506.015 93.5538 503.581 93.5538C501.148 93.5538 499.183 91.5884 499.183 89.1551C499.183 86.7219 501.148 84.7565 503.581 84.7565C506.015 84.7565 507.98 86.7219 507.98 89.1551Z" fill="#9ABCED"/>
<path opacity="0.5" d="M507.98 108.621C507.98 111.055 506.015 113.02 503.581 113.02C501.148 113.02 499.183 111.055 499.183 108.621C499.183 106.188 501.148 104.223 503.581 104.223C506.015 104.223 507.98 106.188 507.98 108.621Z" fill="#9ABCED"/>
<path opacity="0.5" d="M565.334 93.5538H530.176C527.743 93.5538 525.777 91.5884 525.777 89.1551C525.777 86.7218 527.743 84.7565 530.176 84.7565H565.334C567.767 84.7565 569.732 86.7218 569.732 89.1551C569.732 91.5884 567.751 93.5538 565.334 93.5538Z" fill="#9ABCED"/>
<path opacity="0.5" d="M565.334 113.02H530.176C527.743 113.02 525.777 111.055 525.777 108.621C525.777 106.188 527.743 104.223 530.176 104.223H565.334C567.767 104.223 569.732 106.188 569.732 108.621C569.732 111.055 567.751 113.02 565.334 113.02Z" fill="#9ABCED"/>
<path opacity="0.5" d="M507.98 128.4C507.98 130.833 506.015 132.798 503.581 132.798C501.148 132.798 499.183 130.833 499.183 128.4C499.183 125.966 501.148 124.001 503.581 124.001C506.015 124.001 507.98 125.982 507.98 128.4Z" fill="#9ABCED"/>
<path opacity="0.5" d="M565.334 132.798H530.176C527.743 132.798 525.777 130.833 525.777 128.4C525.777 125.966 527.743 124.001 530.176 124.001H565.334C567.767 124.001 569.732 125.966 569.732 128.4C569.732 130.833 567.751 132.798 565.334 132.798Z" fill="#9ABCED"/>
</g>
</g>
<path opacity="0.6" d="M333.501 204.175H247.79C244.499 204.175 241.832 201.507 241.832 198.216V69.8137C241.832 66.5225 244.499 63.8553 247.79 63.8553H333.501C336.792 63.8553 339.46 66.5225 339.46 69.8137V198.216C339.46 201.507 336.792 204.175 333.501 204.175Z" fill="#9ABCED"/>
<path d="M328.057 199.994H242.346C238.369 199.994 235.125 196.75 235.125 192.773V64.37C235.125 60.3925 238.369 57.1481 242.346 57.1481H328.057C332.035 57.1481 335.279 60.3925 335.279 64.37V192.773C335.279 196.75 332.035 199.994 328.057 199.994ZM242.346 59.6594C239.757 59.6594 237.636 61.7651 237.636 64.37V192.773C237.636 195.362 239.741 197.483 242.346 197.483H328.057C330.647 197.483 332.768 195.377 332.768 192.773V64.37C332.768 61.7807 330.662 59.6594 328.057 59.6594H242.346Z" fill="#4F7EB7"/>
<path d="M286.036 121.599L284.804 122.691C284.024 123.377 282.839 123.315 282.137 122.535L269.565 108.372L273.605 104.784L286.177 118.947C286.894 119.727 286.816 120.913 286.036 121.599Z" fill="#7CA6D8"/>
<path d="M265.197 82.37C257.242 82.37 250.754 88.8275 250.754 96.8137C250.754 104.8 257.227 111.257 265.197 111.257C273.184 111.257 279.641 104.8 279.641 96.8137C279.641 88.8275 273.184 82.37 265.197 82.37ZM265.197 106.656C259.769 106.656 255.355 102.257 255.355 96.8137C255.355 91.37 259.769 86.9714 265.197 86.9714C270.641 86.9714 275.04 91.37 275.04 96.8137C275.04 102.257 270.641 106.656 265.197 106.656Z" fill="#7CA6D8"/>
<path d="M323.705 90.325H300.885C299.435 90.325 298.265 89.1551 298.265 87.7045C298.265 86.2539 299.435 85.084 300.885 85.084H323.705C325.156 85.084 326.326 86.2539 326.326 87.7045C326.326 89.1395 325.156 90.325 323.705 90.325Z" fill="#9ABCED"/>
<path d="M323.705 103.926H300.885C299.435 103.926 298.265 102.757 298.265 101.306C298.265 99.8554 299.435 98.6855 300.885 98.6855H323.705C325.156 98.6855 326.326 99.8554 326.326 101.306C326.326 102.757 325.156 103.926 323.705 103.926Z" fill="#9ABCED"/>
<path d="M323.705 116.483H300.885C299.435 116.483 298.265 115.313 298.265 113.862C298.265 112.412 299.435 111.242 300.885 111.242H323.705C325.156 111.242 326.326 112.412 326.326 113.862C326.326 115.313 325.156 116.483 323.705 116.483Z" fill="#9ABCED"/>
<path d="M295.301 151.438H260.144C258.49 151.438 257.164 150.096 257.164 148.459C257.164 146.805 258.506 145.479 260.144 145.479H295.301C296.955 145.479 298.281 146.821 298.281 148.459C298.281 150.096 296.939 151.438 295.301 151.438Z" fill="#9ABCED"/>
<path d="M295.301 170.109H260.144C258.49 170.109 257.164 168.767 257.164 167.129C257.164 165.476 258.506 164.15 260.144 164.15H295.301C296.955 164.15 298.281 165.492 298.281 167.129C298.281 168.783 296.939 170.109 295.301 170.109Z" fill="#9ABCED"/>
<path d="M295.301 188.795H260.144C258.49 188.795 257.164 187.454 257.164 185.816C257.164 184.162 258.506 182.837 260.144 182.837H295.301C296.955 182.837 298.281 184.178 298.281 185.816C298.281 187.454 296.939 188.795 295.301 188.795Z" fill="#9ABCED"/>
<path d="M322.848 148.459C322.848 151.11 320.711 153.247 318.059 153.247C315.407 153.247 313.271 151.11 313.271 148.459C313.271 145.807 315.407 143.67 318.059 143.67C320.711 143.67 322.848 145.807 322.848 148.459Z" fill="#9ABCED"/>
<path d="M322.848 167.129C322.848 169.781 320.711 171.918 318.059 171.918C315.407 171.918 313.271 169.781 313.271 167.129C313.271 164.478 315.407 162.341 318.059 162.341C320.711 162.341 322.848 164.493 322.848 167.129Z" fill="#9ABCED"/>
<path d="M322.848 185.816C322.848 188.467 320.711 190.604 318.059 190.604C315.407 190.604 313.271 188.467 313.271 185.816C313.271 183.164 315.407 181.027 318.059 181.027C320.711 181.027 322.848 183.164 322.848 185.816Z" fill="#9ABCED"/>
<path opacity="0.6" d="M248.476 334.028H99.8744C95.2574 334.028 91.4983 330.284 91.4983 325.652V235.651C91.4983 231.034 95.2418 227.275 99.8744 227.275H248.476C253.093 227.275 256.852 231.019 256.852 235.651V325.652C256.852 330.269 253.109 334.028 248.476 334.028Z" fill="#9ABCED"/>
<path d="M242.393 329.099H93.7912C88.4879 329.099 84.1672 324.778 84.1672 319.475V229.475C84.1672 224.171 88.4879 219.851 93.7912 219.851H242.393C247.696 219.851 252.017 224.171 252.017 229.475V319.475C252.017 324.778 247.696 329.099 242.393 329.099ZM93.7756 222.362C89.8449 222.362 86.6629 225.559 86.6629 229.475V319.475C86.6629 323.406 89.8605 326.588 93.7756 326.588H242.378C246.308 326.588 249.49 323.39 249.49 319.475V229.475C249.49 225.544 246.293 222.362 242.378 222.362H93.7756Z" fill="#4F7EB7"/>
<g opacity="0.5">
<path opacity="0.5" d="M151.005 276.549C147.168 280.418 141.833 282.804 135.937 282.804C124.176 282.804 114.63 273.258 114.63 261.513C114.63 249.736 124.176 240.19 135.937 240.19C138.323 240.19 140.632 240.596 142.769 241.314L135.937 261.513L151.005 276.549Z" fill="#7CA6D8"/>
<path opacity="0.5" d="M160.067 259.86C160.067 264.851 158.039 269.374 154.764 272.634L141.973 259.86L147.776 242.717C154.904 245.119 160.067 251.889 160.067 259.86Z" fill="#E83F54"/>
<path opacity="0.5" d="M232.052 284.068H183.074V242.717C183.074 242.015 183.635 241.454 184.337 241.454C185.024 241.454 185.601 242.015 185.601 242.717V281.556H232.067C232.769 281.556 233.331 282.118 233.331 282.82C233.299 283.506 232.738 284.068 232.052 284.068Z" fill="#9ABCED"/>
<path opacity="0.5" d="M199.608 262.761H193.322V281.556H199.608V262.761Z" fill="#9ABCED"/>
<path opacity="0.5" d="M212.586 253.23H206.3V281.556H212.586V253.23Z" fill="#E83F54"/>
<path opacity="0.5" d="M225.36 267.393H219.074V281.556H225.36V267.393Z" fill="#9ABCED"/>
<path opacity="0.5" d="M145.296 303.253H115.785C114.568 303.253 113.585 302.27 113.585 301.054C113.585 299.837 114.568 298.854 115.785 298.854H145.296C146.513 298.854 147.495 299.837 147.495 301.054C147.495 302.27 146.513 303.253 145.296 303.253Z" fill="#9ABCED"/>
<path opacity="0.5" d="M190.296 303.253H160.785C159.568 303.253 158.585 302.27 158.585 301.054C158.585 299.837 159.568 298.854 160.785 298.854H190.296C191.513 298.854 192.495 299.837 192.495 301.054C192.495 302.27 191.513 303.253 190.296 303.253Z" fill="#9ABCED"/>
<path opacity="0.5" d="M232.566 303.253H203.055C201.838 303.253 200.856 302.27 200.856 301.054C200.856 299.837 201.838 298.854 203.055 298.854H232.566C233.783 298.854 234.766 299.837 234.766 301.054C234.766 302.27 233.783 303.253 232.566 303.253Z" fill="#9ABCED"/>
<path opacity="0.5" d="M164.653 318.945H135.141C133.925 318.945 132.942 317.962 132.942 316.745C132.942 315.529 133.925 314.546 135.141 314.546H164.653C165.87 314.546 166.852 315.529 166.852 316.745C166.852 317.962 165.87 318.945 164.653 318.945Z" fill="#9ABCED"/>
<path opacity="0.5" d="M206.939 318.945H177.428C176.211 318.945 175.229 317.962 175.229 316.745C175.229 315.529 176.211 314.546 177.428 314.546H206.939C208.156 314.546 209.139 315.529 209.139 316.745C209.139 317.962 208.156 318.945 206.939 318.945Z" fill="#9ABCED"/>
</g>
<defs>
<linearGradient id="paint0_linear" x1="402.178" y1="438.069" x2="402.178" y2="286.949" gradientUnits="userSpaceOnUse">
<stop stop-color="#1F3A65"/>
<stop offset="1" stop-color="#294A7A"/>
</linearGradient>
<linearGradient id="paint1_linear" x1="311.006" y1="449.79" x2="311.006" y2="409.165" gradientUnits="userSpaceOnUse">
<stop stop-color="#1F3A65"/>
<stop offset="1" stop-color="#294A7A"/>
</linearGradient>
<linearGradient id="paint2_linear" x1="481.442" y1="449.79" x2="481.442" y2="409.165" gradientUnits="userSpaceOnUse">
<stop stop-color="#1F3A65"/>
<stop offset="1" stop-color="#294A7A"/>
</linearGradient>
<linearGradient id="paint3_linear" x1="343.205" y1="196.355" x2="440.341" y2="196.355" gradientUnits="userSpaceOnUse">
<stop stop-color="#351614"/>
<stop offset="1" stop-color="#210A08"/>
</linearGradient>
</defs>
</svg>
