<svg width="32" height="35" viewBox="0 0 32 35" fill="none" xmlns="http://www.w3.org/2000/svg">
<path d="M2 8.22217H5.11111H30" stroke="white" stroke-width="3" stroke-linecap="round" stroke-linejoin="round"/>
<path d="M9.77775 8.22222V5.11111C9.77775 4.28599 10.1055 3.49467 10.689 2.91122C11.2724 2.32778 12.0637 2 12.8889 2H19.1111C19.9362 2 20.7275 2.32778 21.311 2.91122C21.8944 3.49467 22.2222 4.28599 22.2222 5.11111V8.22222M26.8889 8.22222V30C26.8889 30.8251 26.5611 31.6164 25.9776 32.1999C25.3942 32.7833 24.6029 33.1111 23.7778 33.1111H8.2222C7.39708 33.1111 6.60575 32.7833 6.02231 32.1999C5.43886 31.6164 5.11108 30.8251 5.11108 30V8.22222H26.8889Z" stroke="white" stroke-width="3" stroke-linecap="round" stroke-linejoin="round"/>
</svg>
