<svg width="139" height="22" viewBox="0 0 139 22" fill="none" xmlns="http://www.w3.org/2000/svg">
<path d="M7.37729 3.1445V18.8211H11.5238V22H0V18.8211H4.14652V3.1445H0V0H11.5238V3.1445H7.37729Z" fill="black"/>
<path d="M15.7237 0L18.2402 0.0342773L29.2494 15.5109V0.0342773H32.4762V22H29.8915L18.9764 6.64914V22H15.7143V0.002274H15.7237V0Z" fill="black"/>
<path d="M36.6667 22V0H50.4928V3.17887H40.0158V9.37847H49.2976V12.5894H40.0158V22H36.6667ZM55.4066 3.14678V19.0068H59.7143V21.9931H47.7426V19.0068H52.0503V0.00228016H59.7071V3.14678H55.4066Z" fill="black"/>
<path d="M63.9142 0L66.4307 0.0342773L77.4399 15.5109V0.0342773H80.6667V22H78.082L67.1669 6.64914V22H63.9048V0.002274H63.9142V0Z" fill="black"/>
<path d="M93.2821 3.1445V18.8211H97.4286V22H85.9048V18.8211H90.0513V3.1445H85.9048V0H97.4286V3.1445H93.2821Z" fill="black"/>
<path d="M107.354 2.94457H100.571V0H117.333V2.94457H110.583V22H107.352V2.94457H107.354Z" fill="black"/>
<path d="M128.319 9.66038L134.437 0H138.286L129.951 13.0318V22H126.681V13.0318L118.381 0H122.195L128.319 9.66038Z" fill="black"/>
</svg>
