<svg width="708" height="378" viewBox="0 0 708 378" fill="none" xmlns="http://www.w3.org/2000/svg">
<path d="M458.902 49.8139C452.054 49.3967 443.473 49.073 433.95 49.0802V49.8139H427.808C427.808 49.8139 427.8 49.5477 427.779 49.1306C418.759 49.2744 409.099 49.7275 399.346 50.6914C376.631 52.9355 374.2 60.1427 374.2 60.1427H488.141C486.292 50.9863 473.424 50.6914 458.902 49.8139Z" fill="#13005E"/>
<path d="M486.026 359.046C485.99 356.025 485.76 340.035 484.472 324.355C483.041 306.934 481.221 268.726 479.538 245.594C477.848 222.462 476.416 208.947 476.416 209.335C476.416 209.724 462.772 209.335 462.772 209.335L464.858 327.729C464.858 327.729 468.893 351.774 472.525 359.578C472.525 359.578 477.071 362.693 486.04 359.578C486.026 359.578 486.026 359.391 486.026 359.046Z" fill="#2AD1A1"/>
<path d="M503.612 59.5889H353.024C352.55 59.5889 352.132 59.819 351.845 60.1571C352.075 60.4304 352.226 60.7613 352.226 61.1497V95.2147V99.0988C352.629 101.782 354.42 109.615 363.562 108.946C365.144 108.823 366.64 108.579 368.057 108.27C374.121 106.946 378.825 104.493 383.284 106.349C384.852 106.996 386.377 108.176 387.931 110.111C394.944 118.879 397.476 137.012 390.074 145.586C388.657 147.226 387.125 148.398 385.536 149.218C379.789 152.153 373.243 150.405 368.309 148.751C376.437 155.555 385.6 160.453 385.6 160.453C385.6 160.453 385.572 162.539 383.629 164.618C381.68 166.689 377.904 170.178 377.904 170.178C377.904 170.178 360.649 166.358 352.226 160.058V207.178C352.226 207.559 352.075 207.897 351.845 208.17C351.974 208.328 352.14 208.443 352.312 208.544C352.528 208.659 352.758 208.746 353.017 208.746H412.012C412.602 208.746 415.134 212.615 412.012 219.671C408.891 226.727 402.431 241.933 412.782 252.65C423.132 263.375 444.768 268.05 452.759 259.476C460.75 250.902 458.024 240.538 454.514 234.51C451.004 228.483 448.257 217.262 455.867 208.746H503.605C503.864 208.746 504.101 208.659 504.317 208.551C504.813 208.285 505.159 207.782 505.159 207.178V61.1497C505.173 60.2866 504.475 59.5889 503.612 59.5889Z" fill="#EDE72F"/>
<path d="M207.097 211.882C209.018 208.753 211.017 203.344 208.234 196.575C203.745 185.657 210.766 166.941 228.899 165.287C247.024 163.625 255.023 178.241 254.44 185.65C253.857 193.058 247.7 211.882 247.7 211.882H306.149C306.408 211.882 306.645 211.961 306.861 212.076C307.034 211.975 307.199 211.853 307.321 211.702C307.559 211.436 307.703 211.098 307.703 210.716V145.809C307.703 145.809 315.14 149.312 321.376 151.455C327.612 153.606 338.142 157.698 345.551 149.125C352.952 140.536 350.421 122.418 343.408 113.643C336.387 104.867 329.763 111.693 319.038 112.47C309.889 113.132 308.105 105.299 307.703 102.623V64.667C307.703 64.2857 307.552 63.9477 307.321 63.6816C307.041 63.3435 306.624 63.1133 306.149 63.1133H155.547C154.683 63.1133 153.986 63.811 153.986 64.667V210.709C153.986 211.306 154.338 211.81 154.827 212.069C155.043 211.961 155.28 211.874 155.547 211.874H207.097V211.882Z" fill="#EA2121"/>
<path d="M354.823 278.861C346.443 266.777 339.034 270.675 325.382 274.351C311.738 278.026 307.882 269.122 307.882 269.122V218.348C307.882 217.967 307.731 217.629 307.508 217.362C307.372 217.197 307.214 217.068 307.034 216.974C306.818 216.866 306.581 216.787 306.322 216.787H247.88C247.88 216.787 254.037 197.964 254.62 190.555C255.203 183.154 247.211 168.531 229.078 170.192C210.953 171.847 203.932 190.555 208.413 201.481C211.197 208.264 209.197 213.665 207.277 216.794H155.726C155.467 216.794 155.23 216.873 155.014 216.988C154.518 217.247 154.166 217.751 154.166 218.355V364.39C154.166 365.253 154.87 365.944 155.726 365.944H306.314C306.789 365.944 307.206 365.714 307.494 365.375C307.724 365.095 307.875 364.764 307.875 364.383V321.233C312.011 316.234 319.528 323.104 333.374 326.031C347.213 328.958 352.283 323.701 357.541 312.969C362.814 302.259 363.202 290.945 354.823 278.861Z" fill="#BAC5FD"/>
<path d="M477.474 163.071C474.935 160.842 469.914 160.734 469.526 161.705C469.137 162.683 475.661 164.632 475.661 165.992C475.661 167.358 467.181 169.408 467.958 171.156C468.742 172.911 476.136 168.826 476.136 169.106C476.136 169.401 467.181 174.558 467.914 176.026C468.641 177.486 478.099 171.94 478.394 172.034C478.689 172.134 474.201 176.371 474.784 177.27C475.366 178.176 481.092 173.199 481.092 173.199C481.092 173.199 478.589 177.874 479.66 178.953C480.732 180.025 485.832 172.472 485.832 172.472C485.832 172.472 481.466 166.574 477.474 163.071Z" fill="#ECB7B0"/>
<path d="M504.914 122.964C504.914 122.964 508.647 132.66 502.274 141.234C495.909 149.815 479.128 164.625 479.128 164.625L486.263 172.472C486.263 172.472 503.051 169.43 514.358 155.656C525.665 141.881 522.069 113.391 505.173 94.8047L504.914 122.964Z" fill="#13005E"/>
<path d="M190.374 85.7778C189.799 84.1091 188.324 78.3692 189.007 77.5924C189.691 76.8084 191.194 82.5626 191.885 82.4691C192.561 82.3684 192.805 74.1255 194.172 74.3269C195.538 74.5211 193.632 80.5199 194.51 80.6134C194.51 80.6134 196.999 73.399 198.358 73.6436C199.394 73.8306 196.984 81.5556 197.466 81.5556C197.955 81.5556 201.084 76.42 201.767 77.5924C202.451 78.7648 197.819 84.1163 198.502 84.1163C199.185 84.1163 200.581 81.4046 201.285 82.6777C201.983 83.9437 196.394 91.2947 196.394 91.2947C196.394 91.2947 191.733 89.7266 190.374 85.7778Z" fill="#ECB7B0"/>
<path d="M385.6 160.46C385.6 160.46 393.692 159.367 394.476 160.439C395.253 161.503 390.456 162.482 390.42 162.381C390.384 162.28 398.281 168.135 397.699 168.912C397.116 169.689 389.801 167.056 389.801 167.056C389.801 167.056 396.231 172.321 395.742 173.199C395.253 174.076 387.557 170.178 387.557 170.178C387.557 170.178 392.139 173.688 391.455 175.148C390.765 176.608 384.824 171.832 384.824 171.832C384.824 171.832 388.722 175.637 388.039 177.097C387.355 178.557 377.897 170.178 377.897 170.178C377.897 170.178 380.501 167.653 383.227 164.345C385.96 161.036 385.6 160.46 385.6 160.46Z" fill="#ECB7B0"/>
<path d="M402.705 213.414C401.015 213.543 393.11 212.975 392.721 211.81C392.333 210.637 397.526 210.767 397.72 210.249C397.914 209.724 388.701 206.624 388.693 204.142C388.686 202.617 397.008 205.437 397.008 205.437C397.008 205.437 388.679 201.15 388.686 199.194C388.693 197.252 398.698 201.797 398.698 201.797C398.698 201.797 393.376 198.417 393.764 197.122C394.153 195.82 401.036 199.726 401.036 199.726C401.036 199.726 397.785 196.993 398.569 195.691C399.353 194.396 408.186 202.581 408.186 202.581L402.705 213.414Z" fill="#ECB7B0"/>
<path d="M123.049 106.536C125.02 109.219 126.89 112.147 129.142 114.858C144.225 115.426 153.986 105.759 153.986 105.759V90.4243C153.986 90.4243 148.526 95.7542 135.925 97.4373C123.316 99.1276 113.44 96.1426 109.124 96.1354V96.1426C114.102 97.6818 118.612 100.494 123.049 106.536Z" fill="#E7AD2D"/>
<path d="M105.118 58.1934C97.8388 59.6248 96.1485 64.0412 97.4504 70.0184C98.7523 75.9956 96.803 79.7718 92.9046 83.4041C91.8832 84.3536 91.0488 85.3174 90.3871 86.3172C91.3941 87.7054 92.5161 89.1008 93.89 90.3596C95.5371 91.9204 97.4864 92.8914 97.4864 92.8914C96.803 89.3813 95.9255 84.2169 96.803 84.9002C97.6806 85.5836 104.212 87.9284 107.714 82.5626C111.225 77.204 111.714 65.415 110.735 60.1499C110.275 57.6396 109.908 56.05 109.074 55.0286C108.75 57.3447 106.657 57.8913 105.118 58.1934Z" fill="#ECB7B0"/>
<path d="M107.981 50.1376C104.989 43.5131 91.9337 41.2977 86.5104 47.4044C81.0798 53.511 79.1306 56.496 78.2243 65.5949C77.3108 74.6938 72.6355 76.643 66.1332 80.9371C59.6309 85.224 42.2172 91.978 43.3968 107.184C44.5693 122.389 50.6687 129.143 61.3284 130.049C61.5586 130.071 61.7744 130.071 61.9974 130.085C72.3262 130.697 80.2023 124.986 81.3459 118.75C82.5184 112.384 82.842 111.47 86.5176 107.831C90.1859 104.191 90.5743 102.889 89.1429 96.7828C88.1575 92.5822 88.4956 89.5612 90.0492 86.8927C90.1643 86.6985 90.265 86.4971 90.3873 86.3029C91.0562 85.3031 91.8834 84.3465 92.9047 83.3898C96.8032 79.7575 98.7525 75.9885 97.4506 70.0041C96.1487 64.0269 97.839 59.6033 105.118 58.1791C106.657 57.877 108.75 57.3304 109.074 55.0071C109.225 53.8851 108.966 52.3242 107.981 50.1376Z" fill="#3A28B1"/>
<path d="M196.402 91.3018L190.849 86.9933C187.813 103.443 172.047 124.216 153.137 124.863C140.327 125.302 133.875 120.555 129.142 114.858C126.891 112.154 125.028 109.226 123.05 106.536C118.612 100.494 114.102 97.6818 109.124 96.1425C107.254 95.5671 105.319 95.1571 103.298 94.8406C99.1264 94.1861 96.1702 92.4598 93.8829 90.3595C92.5091 89.1008 91.387 87.7054 90.38 86.3172C90.2577 86.5114 90.1498 86.7128 90.0419 86.907C88.4883 89.5755 88.1502 92.5965 89.1356 96.7971C90.567 102.904 90.1786 104.198 86.5103 107.845C82.8348 111.485 82.5111 112.391 81.3387 118.764C80.195 125 72.3189 130.711 61.9901 130.1C60.8321 145.19 60.5587 159.986 60.6666 166.581C60.8033 174.249 57.2932 180.622 57.2932 180.622C57.2932 180.622 80.1663 189.454 92.2501 188.16C104.334 186.858 107.197 183.736 107.197 183.736C104.6 170.998 106.024 154.231 106.679 147.873C107.333 141.507 111.879 142.291 114.735 138.911C117.597 135.53 114.476 131.761 114.476 131.761C114.476 131.761 126.948 143.975 144.628 145.665C162.301 147.362 176.859 143.723 187.641 124.223C198.43 104.724 196.402 91.3018 196.402 91.3018Z" fill="url(#paint0_linear)"/>
<path d="M2.9733 346.315C1.02406 347.358 -1.31359 349.307 0.89459 351.767C3.10277 354.241 5.83603 359.183 6.61285 362.168C7.39686 365.16 10.8997 367.814 15.0572 367.267C19.2146 366.713 19.9986 364.498 17.6538 362.815C15.6182 361.355 13.6905 356.644 11.5111 352.616C10.7055 353.328 10.2452 353.716 10.2452 353.716C8.82103 350.861 2.9733 346.315 2.9733 346.315Z" fill="#3A28B1"/>
<path d="M144.239 367.238C141.125 367.505 136.442 365.814 136.047 365.426C136.047 365.426 134.623 369.583 135.14 371.533C135.658 373.489 142.808 372.971 148.785 372.971C154.762 372.971 158.143 372.712 158.79 371.533C159.373 370.475 152.662 365.491 148.735 364.167C148.764 365.066 148.785 365.555 148.785 365.555C148.785 365.555 147.354 366.972 144.239 367.238Z" fill="#3A28B1"/>
<path d="M148.778 365.541C148.778 365.541 147.361 366.979 144.239 367.246C141.118 367.497 136.442 365.807 136.054 365.411C135.666 365.03 126.696 334.497 123.316 310.833C119.928 287.176 113.303 274.056 104.6 259.634C97.1339 247.248 84.7623 227.389 80.9142 221.93C80.8854 221.894 80.8711 221.865 80.8567 221.822C80.2669 220.995 79.8856 220.527 79.7778 220.506C79.7274 220.506 79.6842 220.527 79.6339 220.592C78.7564 221.376 76.577 230.345 72.6353 245.853C68.4707 262.224 57.6959 290.297 44.0512 313.566C32.4277 333.36 16.1217 348.544 11.5183 352.63C10.7055 353.335 10.2523 353.723 10.2523 353.723C8.81379 350.868 2.96606 346.315 2.96606 346.315C2.96606 346.315 17.143 317.731 25.4579 300.964C33.7727 284.198 37.8079 279.767 39.7571 268.992C41.7064 258.203 40.9296 243.904 44.5619 226.109C48.1943 208.3 55.4733 185.29 57.3003 180.615C57.3003 180.615 80.159 189.454 92.25 188.145C104.334 186.851 107.204 183.729 107.204 183.729C107.204 183.729 123.186 220.772 130.329 242.214C137.471 263.655 143.067 286.924 145.412 310.71C147.455 331.512 148.498 357.895 148.735 364.167C148.764 365.059 148.778 365.541 148.778 365.541Z" fill="url(#paint1_linear)"/>
<path d="M257.044 212.385C253.469 214.054 241.32 214.665 240.738 214.536C240.155 214.399 238.134 219.542 236.055 222.397C233.984 225.253 232.747 223.894 232.876 222.067C233.006 220.254 232.157 219.528 230.963 219.657C230.884 219.686 230.805 219.722 230.725 219.758C230.488 219.923 230.337 220.29 230.229 220.765C229.718 223.75 230.632 232.561 230.632 232.561L230.596 233.093L230.531 234.122C230.531 234.122 235.307 237.927 238.724 237.531C239.457 237.445 240.407 237.207 241.457 236.833C245.291 235.488 250.621 232.302 253.145 227.49C255.886 222.254 257.339 216.737 257.044 212.385Z" fill="#ECB7B0"/>
<path d="M255.03 203.675C255.03 203.675 256.519 201.143 255.677 199.719C254.828 198.28 251.196 199.323 251.196 199.323C251.196 199.323 250.477 196.014 243.917 197.446C237.35 198.87 234.753 201.797 233.394 203.56C232.027 205.307 230.402 209.127 230.402 209.127C228.841 206.804 226.043 208.235 225.849 212.651C225.655 217.075 227.863 224.613 230.071 224.354C230.071 224.354 229.913 222.153 230.215 220.772C230.301 220.254 230.431 219.894 230.618 219.808C230.646 219.786 230.675 219.779 230.704 219.765C230.776 219.715 230.855 219.679 230.934 219.664H230.941C232.135 219.535 232.984 220.254 232.854 222.074C232.725 223.901 233.962 225.26 236.034 222.405C238.12 219.549 240.134 214.406 240.716 214.543C241.299 214.665 253.447 214.061 257.022 212.392C257.029 212.392 257.029 212.385 257.029 212.385C260.59 210.709 263.776 208.436 263.97 206.034C264.193 203.617 255.03 203.675 255.03 203.675Z" fill="#13005E"/>
<path d="M230.718 219.758C230.689 219.772 230.661 219.779 230.632 219.801C230.445 219.887 230.315 220.247 230.229 220.765C230.33 220.29 230.481 219.923 230.718 219.758Z" fill="#13005E"/>
<path d="M302.201 246.048C302.208 246.026 302.23 246.004 302.23 246.004C302.23 246.004 302.135 245.953 302.201 246.048Z" fill="#3A28B1"/>
<path d="M304.02 248.068C302.653 246.644 302.279 246.191 302.193 246.047C301.934 246.493 298.748 251.866 289.886 262.878C280.622 274.38 271.947 279.249 265.517 271.452C259.087 263.655 255.382 251.758 249.729 245.141C247.089 242.048 244.442 239.077 241.45 236.84C240.4 237.207 239.45 237.452 238.717 237.538C235.3 237.927 230.524 234.129 230.524 234.129L230.589 233.1C230.15 233.107 229.711 233.115 229.258 233.151C229.258 233.151 211.808 243.098 207.91 259.857C204.011 276.624 204.011 286.463 205.86 299.727C207.493 311.372 211.154 318.881 212.01 320.528C212.125 320.751 212.197 320.874 212.197 320.874C212.197 320.874 225.748 322.248 236.854 319.708C247.967 317.169 257.324 306.057 257.324 306.057C257.324 306.057 252.361 293.289 252.16 286.571C252.16 286.571 256.742 295.534 269.509 294.85C282.269 294.167 289.03 286.442 291.864 282.637C294.691 278.839 307.818 261.224 310.831 252.751C310.846 252.744 306.358 250.5 304.02 248.068Z" fill="url(#paint2_linear)"/>
<path d="M222.828 338.194C225.798 342.956 231.114 353.27 228.97 356.356C226.532 359.866 209.766 357.909 202.652 356.845C195.531 355.773 191.151 354.888 191.151 354.888L188.612 364.448C188.612 364.448 188.554 364.613 188.475 364.886C189.518 365.498 205.687 370.49 214.247 372.353C223.123 374.287 241.738 375.69 247.197 372.353C252.44 369.159 256.584 355.442 254.311 338.194C240.659 343.538 229.812 343.265 222.828 338.194Z" fill="#E43B33"/>
<path d="M188.425 364.829C188.518 364.541 191.158 354.888 191.158 354.888C190.28 353.723 188.231 353.335 187.065 353.917C185.893 354.5 181.8 360.254 181.412 364.929C181.023 369.605 184.044 373.985 187.159 374.359C190.28 374.726 189.597 372.36 188.425 370.346C187.49 368.749 188.166 365.958 188.482 364.879C188.439 364.865 188.418 364.843 188.425 364.829Z" fill="#13005E"/>
<path d="M191.151 354.888C191.151 354.888 188.518 364.541 188.417 364.829C188.41 364.85 188.439 364.865 188.475 364.886C188.554 364.62 188.612 364.448 188.612 364.448L191.151 354.888Z" fill="#13005E"/>
<path d="M283.449 372.237C280.039 371.755 277.795 369.605 277.795 369.605C277.313 371.065 275.946 375.942 276.925 376.819C277.903 377.697 298.467 378.085 298.755 377.984C299.05 377.891 297.194 372.23 289.591 371.453C289.591 371.461 286.865 372.727 283.449 372.237Z" fill="#13005E"/>
<path d="M306.947 303.23C300.812 299.231 257.331 306.05 257.331 306.05C257.331 306.05 247.974 317.162 236.861 319.701C225.755 322.24 212.204 320.867 212.204 320.867C212.204 320.867 212.132 320.744 212.017 320.521C212.204 320.867 215.326 332.663 222.727 338.115C222.756 338.136 222.792 338.151 222.821 338.18C229.805 343.258 240.651 343.524 254.303 338.18C255.138 337.856 255.986 337.504 256.842 337.144C271.753 330.706 287.153 322.133 287.153 322.133C287.153 322.133 287.642 322.909 285.98 325.348C284.326 327.793 279.744 339 278.478 350.882C277.212 362.786 277.788 369.598 277.788 369.598C277.788 369.598 280.032 371.748 283.441 372.23C286.858 372.719 289.584 371.453 289.584 371.453C289.584 371.453 299.819 348.746 306.055 331.296C312.306 313.854 313.09 307.229 306.947 303.23Z" fill="url(#paint3_linear)"/>
<path d="M447.005 25.6318C446.725 28.8613 443.402 28.4369 443.402 28.4369C443.402 28.4369 443.215 30.4941 442.387 33.2705C441.949 34.7378 441.337 36.4209 440.503 38.0897C440.409 38.291 440.301 38.4925 440.194 38.701C439.1 40.715 436.698 42.0241 433.957 42.5851C431.792 43.0311 429.419 43.0239 427.318 42.4844C425.369 42.0169 423.65 41.1322 422.557 39.7728C418.752 35.0975 418.845 29.3432 418.845 29.3432C416.04 29.9978 414.228 22.8697 415.724 21.6829C415.99 21.611 418.162 21.0931 419.14 24.4305C419.457 25.4951 419.795 25.0707 419.687 22.5604C419.557 19.5035 420.37 17.7053 422.413 16.0582C424.463 14.4038 425.47 15.8999 430.57 16.6839C435.669 17.4608 438.82 14.1449 439.899 13.6558C440.97 13.1523 441.754 18.1297 441.639 20.8558C441.546 23.589 444.085 23.589 444.869 22.4166C444.912 22.3375 444.977 22.1936 445.027 22.0426C446.113 22.3087 447.207 23.5099 447.005 25.6318Z" fill="#ECB7B0"/>
<path d="M445.854 11.6058C445.754 6.93054 441.064 -0.190315 430.613 0.00389005C420.162 0.198095 416.795 5.95232 415.824 10.7283C414.846 15.5043 415.299 19.8416 415.688 21.6901C415.688 21.6901 415.695 21.6901 415.716 21.6829C415.99 21.6038 418.162 21.0931 419.14 24.4378C419.45 25.4879 419.795 25.0707 419.687 22.5533C419.557 19.4963 420.37 17.7125 422.42 16.0582C424.47 14.4038 425.477 15.8927 430.577 16.6696C435.676 17.4464 438.827 14.1377 439.899 13.6486C440.963 13.1595 441.747 18.1297 441.646 20.863C441.546 23.589 444.085 23.589 444.862 22.4238C444.919 22.3375 444.977 22.208 445.027 22.057C445.682 20.1365 445.941 15.9359 445.854 11.6058Z" fill="#896215"/>
<path d="M427.311 42.4916L427.275 42.4988C427.462 42.542 427.7 47.318 427.779 49.1234C427.8 49.5478 427.808 49.8067 427.808 49.8067H433.95V49.073V42.5851C431.778 43.0383 429.419 43.0167 427.311 42.4916Z" fill="#ECB7B0"/>
<path d="M368.309 148.758C365.353 146.283 362.54 143.557 360.361 140.716C352.327 130.258 359.678 115.901 368.064 108.277C366.647 108.586 365.151 108.831 363.569 108.953C354.42 109.615 352.636 101.789 352.233 99.106V95.2219C346.716 103.508 337.236 115.038 337.358 130.2C337.488 145.658 343.472 153.059 351.65 159.626C351.837 159.777 352.032 159.921 352.226 160.072C360.649 166.373 377.904 170.192 377.904 170.192C377.904 170.192 381.68 166.711 383.629 164.632C385.579 162.553 385.6 160.468 385.6 160.468C385.6 160.468 376.43 155.569 368.309 148.758Z" fill="#13005E"/>
<path d="M501.879 98.8902C501.282 94.9198 499.254 90.4387 496.297 87.1085C492.658 83.0158 487.652 82.2318 484.401 85.2239C481.157 88.209 476.604 90.9422 474.525 91.0717C472.446 91.194 470.957 91.0069 469.72 92.6901C468.008 95.0277 470.108 99.5807 472.648 101.595C473.964 102.645 475.453 102.868 476.985 102.523C478.387 102.206 479.833 101.415 481.228 100.293C484.156 97.9552 488.637 93.1864 493.118 95.3586C497.606 97.5236 497.664 100.53 498.836 102.688C500.009 104.846 501.958 106.018 502.088 101.53C502.102 100.696 502.023 99.8037 501.879 98.8902Z" fill="#13005E"/>
<path d="M505.785 101.861C506.079 104.795 502.756 105.277 502.756 105.277C502.756 105.277 502.663 106.248 502.756 110.83C502.807 112.657 502.469 114.585 501.764 116.426C501.203 117.879 500.39 119.239 499.318 120.454C498.318 121.576 497.132 122.576 495.657 123.31C491.162 125.568 487.263 124.122 485.242 121.72C484.954 121.425 484.738 121.101 484.537 120.771C483.847 119.613 482.796 117.16 481.631 114.362C479.97 110.226 478.128 105.378 477.078 102.882C477.049 102.803 477.021 102.746 476.992 102.666V102.544C478.394 102.235 479.826 101.436 481.228 100.307C484.163 97.9695 488.637 93.2007 493.111 95.3657C497.606 97.5379 497.664 100.545 498.836 102.695C500.009 104.867 501.958 106.033 502.095 101.537C502.109 100.696 502.03 99.8109 501.886 98.9046C503.382 97.6314 505.518 99.2426 505.785 101.861Z" fill="#ECB7B0"/>
<path d="M504.914 122.964C504.821 122.59 504.698 122.188 504.483 121.742C503.612 119.908 502.49 117.793 501.757 116.426C501.196 117.872 500.383 119.239 499.318 120.447C499.98 121.648 501.023 123.382 501.9 124.525C502.354 125.122 502.764 125.547 503.058 125.64C504.051 125.971 505.396 125.072 504.914 122.964Z" fill="#ECB7B0"/>
<path d="M586.876 187.894L563.09 141.889C563.09 141.889 563.039 141.479 562.939 140.752C562.859 140.206 562.751 139.472 562.593 138.602C561.831 134.142 560.04 126.093 556.465 120.339C551.272 111.995 544.899 105.428 534.362 109.233C526.162 112.197 511.143 119.756 504.907 122.957C505.389 125.058 504.044 125.964 503.051 125.633C502.749 125.539 502.347 125.108 501.901 124.518C498.081 126.604 480.099 132.761 476.136 140.45C472.13 148.247 475.697 166.179 467.872 178.536C460.039 190.871 453.802 201.272 408.186 202.567L402.698 213.406C402.698 213.406 415.199 218.693 443.668 215.313C451.853 214.342 458.557 212.673 464.052 210.601C464.584 211.946 465.145 213.78 465.002 215.435C464.721 218.47 464.196 220.383 464.196 220.383C464.196 220.383 468.871 221.678 489.018 217.528C509.172 213.363 518.135 208.681 518.135 208.681C518.135 208.681 518.156 208.724 518.199 208.817C518.235 208.889 518.3 209.019 518.372 209.177C518.998 210.565 520.803 214.557 521.789 216.773C522.004 217.247 522.177 217.643 522.285 217.909C523.062 219.722 526.838 222.728 554.005 214.147C581.158 205.552 586.61 190.864 587.142 188.397L586.876 187.894ZM489.018 198.668C485.652 199.719 481.689 201.15 477.905 202.617C482.128 198.92 484.516 194.993 485.638 191.526C488.508 182.823 492.83 171.07 493.075 167.164C493.341 163.273 493.435 159.684 496.168 165.013C498.743 170.034 507.194 185.901 508.158 187.721C508.216 187.822 508.245 187.886 508.245 187.886C508.245 187.886 508.014 188.088 507.561 188.433C505.281 190.267 497.563 196.05 489.018 198.668Z" fill="url(#paint4_linear)"/>
<path d="M706.312 333.706C704.492 326.945 697.019 325.161 697.019 325.161L697.012 325.189C700.054 332.505 696.177 342.028 696.177 342.028C696.177 342.028 695.818 341.862 695.192 341.553C696.832 344.236 698.393 353.594 698.198 354.759C698.004 355.924 693.458 361.391 694.365 362.426C695.278 363.469 703.334 362.685 704.758 358.269C706.175 353.853 708.132 340.467 706.312 333.706Z" fill="#13005E"/>
<path d="M519.559 360.477C519.559 360.477 519.544 360.47 519.544 360.456C514.337 362.268 506.741 366.39 506.173 367.764C505.526 369.317 513.581 369.965 521.637 369.706C529.693 369.447 533.462 369.835 533.987 366.454C534.383 363.901 532.829 360.664 532.06 359.247C530.24 361.75 519.559 360.477 519.559 360.477Z" fill="#13005E"/>
<path d="M463.822 216.981C463.606 217.096 463.369 217.175 463.11 217.175H415.364C407.754 225.699 410.509 236.92 414.012 242.947C417.522 248.975 420.248 259.34 412.257 267.913C404.266 276.487 382.623 271.812 372.272 261.087C361.922 250.363 368.388 235.157 371.51 228.101C374.631 221.045 372.092 217.175 371.51 217.175H312.522C312.256 217.175 312.018 217.096 311.802 216.974C311.63 217.075 311.479 217.204 311.342 217.362C311.572 217.621 311.723 217.967 311.723 218.348V269.122C311.723 269.122 315.579 278.026 329.223 274.351C342.868 270.675 350.277 266.777 358.656 278.861C367.036 290.945 366.655 302.259 361.382 312.976C356.124 323.708 351.053 328.966 337.214 326.038C323.376 323.111 315.852 316.242 311.723 321.241V364.39C311.723 364.771 311.565 365.102 311.342 365.383C311.63 365.714 312.04 365.951 312.522 365.951H463.11C463.966 365.951 464.663 365.253 464.663 364.397V218.348C464.663 217.744 464.318 217.24 463.822 216.981Z" fill="#21C8FF"/>
<path d="M697.012 325.189C696.63 324.262 696.156 323.362 695.523 322.528C689.934 315.12 662.645 297.965 649.777 290.556C636.909 283.155 628.198 280.163 618.977 258.066C609.749 235.977 601.801 203.754 586.869 187.901L587.135 188.412C586.617 190.879 581.158 205.566 553.998 214.147C526.838 222.736 523.069 219.729 522.292 217.909C522.177 217.643 521.997 217.255 521.796 216.78C519.954 219.995 506.043 233.503 496.168 245.983C486.292 258.455 476.934 266.647 477.977 277.178C479.013 287.701 487.198 302.906 496.693 321.363C506.065 339.597 519.242 359.981 519.551 360.456C519.559 360.463 519.566 360.477 519.566 360.477C519.566 360.477 530.247 361.758 532.06 359.254C532.168 359.118 532.254 358.96 532.297 358.794C533.081 355.672 522.421 325.786 517.35 307.977C512.287 290.175 507.734 280.688 518.911 269.381C530.089 258.074 556.731 237.927 560.759 235.46C564.787 232.992 566.736 232.604 574.145 245.724C581.553 258.85 591.817 281.335 600.657 291.729C609.497 302.122 625.609 310.185 644.454 318.241C661.386 325.484 689.618 338.892 695.192 341.553C695.825 341.855 696.177 342.028 696.177 342.028C696.177 342.028 700.054 332.505 697.012 325.189Z" fill="url(#paint5_linear)"/>
<path d="M494.995 362.808C493.097 361.678 488.414 359.916 486.026 359.046C486.026 359.391 486.026 359.571 486.026 359.571C477.057 362.685 472.511 359.571 472.511 359.571C471.597 361.642 471.727 365.678 472.511 365.937C473.288 366.195 495.765 365.937 496.686 365.937C497.599 365.937 497.599 364.361 494.995 362.808Z" fill="#A9A8E1"/>
<path d="M390.074 145.6C397.483 137.026 394.951 118.893 387.931 110.125C386.377 108.183 384.852 107.011 383.284 106.364C384.622 111.621 385.32 139.342 385.536 149.232C387.125 148.405 388.657 147.233 390.074 145.6Z" fill="#13005E"/>
<path d="M462.923 207.76C462.714 207.408 456.658 202.445 455.744 203.617C454.831 204.782 459.643 210.242 459.643 210.242C459.643 210.242 450.868 209.853 450.868 211.026C450.868 212.191 456.715 212.838 456.715 212.838C456.715 212.838 447.825 212.716 447.818 214.651C447.811 215.823 456.528 216.219 456.528 216.219C456.528 216.219 449.638 217.384 449.638 218.29C449.638 219.211 457.176 219.067 457.176 219.067C457.176 219.067 451.781 220.563 452.234 221.542C452.5 222.124 464.189 220.376 464.189 220.376C464.189 220.376 467.08 214.78 462.923 207.76Z" fill="#ECB7B0"/>
<path d="M314.636 242.897C313.694 242.228 311.335 246.407 311.335 246.407C311.335 246.407 313.601 239.207 312.795 238.222C312.256 237.567 308.702 244.17 308.702 244.17C308.702 244.17 312.256 235.445 310.752 234.611C310.011 234.201 306.322 243.041 306.322 243.041C306.322 243.041 308.422 234.323 306.955 234.805C305.494 235.294 303.739 242.753 303.739 242.753C303.157 240.703 301.294 236.776 300.711 238.466C300.129 240.149 302.229 246.011 302.229 246.011C302.229 246.011 301.689 245.63 304.027 248.076C306.365 250.507 310.846 252.751 310.846 252.751C310.846 252.751 315.715 243.666 314.636 242.897Z" fill="#ECB7B0"/>
<path d="M417.342 26.3726C417.234 26.3726 417.148 26.2862 417.148 26.1784C417.148 25.38 416.35 24.2651 416.199 24.1428C416.091 24.1068 416.062 24.0061 416.098 23.9054C416.134 23.7975 416.263 23.7616 416.371 23.7975C416.601 23.8767 417.544 25.2505 417.544 26.1784C417.544 26.2862 417.457 26.3726 417.342 26.3726Z" fill="#F39E97"/>
<path d="M443.955 26.5309C443.848 26.5309 443.761 26.4445 443.761 26.3438C443.761 26.0921 444.322 24.3371 445.257 23.812C445.358 23.7616 445.466 23.7904 445.523 23.8911C445.574 23.9846 445.538 24.1069 445.444 24.1573C444.653 24.596 444.157 26.1784 444.15 26.351C444.142 26.4445 444.056 26.5309 443.955 26.5309Z" fill="#F39E97"/>
<path d="M532.75 162.877C525.903 173.889 508.244 187.894 508.244 187.894C508.244 187.894 508.216 187.829 508.158 187.728C511.56 184.901 526.37 172.393 532.419 162.683C539.152 151.858 537.303 137.53 536.009 132.912L536.375 132.804C537.677 137.465 539.562 151.951 532.75 162.877Z" fill="#3A28B1"/>
<path d="M551.674 182.607L550.883 183.765C543.705 194.209 528.398 203.243 521.047 207.573C519.94 208.213 519.026 208.76 518.372 209.184C518.293 209.026 518.235 208.897 518.199 208.825C518.854 208.422 519.76 207.89 520.853 207.228C528.183 202.912 543.439 193.907 550.567 183.535L551.358 182.384C559.378 170.753 564.211 163.733 562.413 138.594H562.6C562.758 139.472 562.866 140.198 562.945 140.745C564.326 164.265 559.507 171.242 551.674 182.607Z" fill="#3A28B1"/>
<path d="M252.297 286.981C252.253 286.981 252.217 286.974 252.181 286.945C252.131 286.902 246.765 282.953 238.299 270.92C229.941 259.023 228.057 249.421 232.711 242.372C232.768 242.271 232.89 242.257 232.977 242.307C233.07 242.379 233.092 242.494 233.034 242.588C228.481 249.5 230.359 258.951 238.623 270.697C247.046 282.673 252.361 286.6 252.412 286.636C252.498 286.694 252.52 286.823 252.455 286.902C252.412 286.953 252.354 286.981 252.297 286.981Z" fill="#BAC5FD"/>
<path d="M80.8494 221.822C80.2596 220.995 79.8784 220.527 79.7705 220.506C79.7201 220.506 79.677 220.527 79.6266 220.592C77.2746 216.722 75.0304 212.917 73.9299 210.81L74.2752 210.637C75.498 212.996 78.1809 217.478 80.8494 221.822Z" fill="#F39E97"/>
<path d="M114.476 131.948C114.433 131.948 114.389 131.927 114.353 131.905C109.8 128.172 105.65 123.094 103.773 118.972C103.73 118.872 103.773 118.757 103.874 118.714C103.967 118.67 104.089 118.713 104.133 118.814C105.981 122.885 110.095 127.906 114.605 131.61C114.684 131.675 114.699 131.797 114.627 131.876C114.584 131.919 114.533 131.948 114.476 131.948Z" fill="#13005E"/>
<path d="M503.152 104.105C503.044 104.105 502.958 104.019 502.958 103.911C502.958 103.875 502.943 103.788 502.929 103.666C502.828 102.99 502.627 101.602 503.195 100.875C503.267 100.789 503.382 100.782 503.476 100.847C503.562 100.911 503.569 101.034 503.504 101.12C503.037 101.71 503.231 103.04 503.317 103.609C503.339 103.753 503.353 103.86 503.353 103.911C503.346 104.019 503.26 104.105 503.152 104.105Z" fill="#F39E97"/>
<defs>
<linearGradient id="paint0_linear" x1="149.015" y1="88.3451" x2="61.6817" y2="228.701" gradientUnits="userSpaceOnUse">
<stop stop-color="#FDC130"/>
<stop offset="1" stop-color="#FAA868"/>
</linearGradient>
<linearGradient id="paint1_linear" x1="78.8308" y1="382.927" x2="58.5568" y2="144.316" gradientUnits="userSpaceOnUse">
<stop offset="0.005" stop-color="#0F0063"/>
<stop offset="0.995" stop-color="#170083"/>
</linearGradient>
<linearGradient id="paint2_linear" x1="204.666" y1="277.168" x2="310.843" y2="277.168" gradientUnits="userSpaceOnUse">
<stop stop-color="#4C46D3"/>
<stop offset="0.9751" stop-color="#615FF4"/>
</linearGradient>
<linearGradient id="paint3_linear" x1="254.098" y1="293.285" x2="289.184" y2="394.646" gradientUnits="userSpaceOnUse">
<stop offset="0.00501953" stop-color="#F44234"/>
<stop offset="1" stop-color="#FF4E3E"/>
</linearGradient>
<linearGradient id="paint4_linear" x1="529.503" y1="151.744" x2="435.154" y2="284.3" gradientUnits="userSpaceOnUse">
<stop stop-color="#A9A8E1"/>
<stop offset="0.9801" stop-color="#E1E0F4"/>
</linearGradient>
<linearGradient id="paint5_linear" x1="490.497" y1="199.899" x2="643.327" y2="380.8" gradientUnits="userSpaceOnUse">
<stop stop-color="#4C46D3"/>
<stop offset="0.9751" stop-color="#615FF4"/>
</linearGradient>
</defs>
</svg>
