<svg width="61" height="61" viewBox="0 0 61 61" fill="none" xmlns="http://www.w3.org/2000/svg">
<path d="M57.5464 27.1031L47.5281 17.4058C46.59 16.4978 45.3433 16 44.0187 16C42.6941 16 41.4474 16.4978 40.5093 17.4058L30.2401 27.9783L19.4894 17.4058C18.5513 16.4978 17.3047 16 15.98 16C14.6554 16 13.4088 16.4978 12.4707 17.4058L2.45234 27.1031C1.51425 28.0111 1 29.2178 1 30.5C1 31.7822 1.51425 32.9889 2.45234 33.8969L12.4707 43.5942C13.4088 44.5022 14.6554 45 15.98 45C17.3047 45 18.5513 44.5022 19.4894 43.5942C19.4894 43.5942 30.0174 33.1289 30.1655 32.9342C30.3136 33.1289 40.5082 43.5942 40.5082 43.5942C41.4463 44.5022 42.6929 45 44.0176 45C45.3422 45 46.5888 44.5022 47.5269 43.5942L57.5453 33.8969C59.4847 32.0207 59.4847 28.975 57.5464 27.1031ZM27.8056 30.4912L17.0142 41.1918C16.4626 41.7256 15.5042 41.7256 14.9572 41.1918L4.93884 31.4945C4.66307 31.2275 4.51048 30.8731 4.51048 30.4989C4.51048 30.1204 4.66307 29.7703 4.93884 29.5034L14.9572 19.8061C15.233 19.5391 15.5991 19.3914 15.9857 19.3914C16.3767 19.3914 16.7384 19.5391 17.0142 19.8061L27.8056 30.4912ZM55.0701 31.4955L45.0517 41.1928C44.4844 41.742 43.5587 41.742 42.9947 41.1928L32.5944 30.4967L42.9947 19.8006C43.2784 19.526 43.6525 19.3903 44.0232 19.3903C44.3939 19.3903 44.768 19.526 45.0517 19.8006L55.0701 29.5012C55.6374 30.0493 55.6374 30.9453 55.0701 31.4955Z" fill="url(#paint0_linear)"/>
<defs>
<linearGradient id="paint0_linear" x1="29.2568" y1="56.5543" x2="30.2032" y2="21.1969" gradientUnits="userSpaceOnUse">
<stop stop-color="#2E779E" stop-opacity="0"/>
<stop offset="0.4559" stop-color="#16A4E3"/>
<stop offset="0.8883" stop-color="#1F65AF"/>
</linearGradient>
</defs>
</svg>
