<svg width="247" height="46" viewBox="0 0 247 46" fill="none" xmlns="http://www.w3.org/2000/svg">
<path d="M109.377 16.1445V31.8211H113.524V35H102V31.8211H106.147V16.1445H102V13H113.524V16.1445H109.377Z" fill="black"/>
<path d="M117.724 13L120.24 13.0343L131.249 28.5109V13.0343H134.476V35H131.891L120.976 19.6491V35H117.714V13.0023H117.724V13Z" fill="black"/>
<path d="M138.667 35V13H152.493V16.1789H142.016V22.3785H151.298V25.5894H142.016V35H138.667ZM157.407 16.1468V32.0068H161.714V34.9931H149.743V32.0068H154.05V13.0023H161.707V16.1468H157.407Z" fill="black"/>
<path d="M165.914 13L168.431 13.0343L179.44 28.5109V13.0343H182.667V35H180.082L169.167 19.6491V35H165.905V13.0023H165.914V13Z" fill="black"/>
<path d="M195.282 16.1445V31.8211H199.429V35H187.905V31.8211H192.051V16.1445H187.905V13H199.429V16.1445H195.282Z" fill="black"/>
<path d="M209.354 15.9446H202.571V13H219.333V15.9446H212.583V35H209.352V15.9446H209.354Z" fill="black"/>
<path d="M230.319 22.6604L236.437 13H240.286L231.951 26.0318V35H228.681V26.0318L220.381 13H224.195L230.319 22.6604Z" fill="black"/>
<path d="M85.7945 18.8461L70.5943 4.13294C69.171 2.75524 67.2795 2 65.2697 2C63.26 2 61.3685 2.75524 59.9452 4.13294L44.3643 20.174L28.0529 4.13294C26.6296 2.75524 24.7381 2 22.7283 2C20.7185 2 18.8271 2.75524 17.4038 4.13294L2.20355 18.8461C0.780247 20.2238 0 22.0546 0 24C0 25.9454 0.780247 27.7762 2.20355 29.1539L17.4038 43.8671C18.8271 45.2448 20.7185 46 22.7283 46C24.7381 46 26.6296 45.2448 28.0529 43.8671C28.0529 43.8671 44.0265 27.9887 44.2511 27.6932C44.4758 27.9887 59.9435 43.8671 59.9435 43.8671C61.3668 45.2448 63.2583 46 65.268 46C67.2778 46 69.1693 45.2448 70.5926 43.8671L85.7928 29.1539C88.7354 26.3072 88.7354 21.6861 85.7945 18.8461ZM40.6706 23.9867L24.2974 40.222C23.4606 41.032 22.0064 41.032 21.1764 40.222L5.97617 25.5088C5.55776 25.1038 5.32625 24.566 5.32625 23.9983C5.32625 23.424 5.55776 22.8929 5.97617 22.4879L21.1764 7.77471C21.5948 7.3697 22.1504 7.14562 22.7369 7.14562C23.3302 7.14562 23.879 7.3697 24.2974 7.77471L40.6706 23.9867ZM82.0373 25.5105L66.8371 40.2236C65.9763 41.0569 64.5718 41.0569 63.7161 40.2236L47.9363 23.995L63.7161 7.76641C64.1465 7.34978 64.7142 7.14396 65.2766 7.14396C65.8391 7.14396 66.4067 7.34978 66.8371 7.76641L82.0373 22.4845C82.8982 23.3161 82.8982 24.6756 82.0373 25.5105Z" fill="url(#paint0_linear)"/>
<defs>
<linearGradient id="paint0_linear" x1="42.8724" y1="63.5307" x2="44.3083" y2="9.8849" gradientUnits="userSpaceOnUse">
<stop stop-color="#38A5DF" stop-opacity="0"/>
<stop offset="0.4559" stop-color="#3E9EC9"/>
<stop offset="0.8883" stop-color="#366495"/>
</linearGradient>
</defs>
</svg>
