<svg width="506" height="416" viewBox="0 0 506 416" fill="none" xmlns="http://www.w3.org/2000/svg">
<path d="M470 392H0V416H470V392Z" fill="#BBB7B7"/>
<path d="M3.58088 384H465.227L470 392H0L3.58088 384Z" fill="#D3D3D3"/>
<path d="M409.689 152.088C409.611 152.51 409.518 152.946 409.404 153.392C409.187 154.25 408.866 155.007 408.462 155.661C407.531 157.174 406.159 158.149 404.684 158.643C403.586 159.007 402.422 159.089 401.309 158.905C400.429 158.76 399.585 158.459 398.85 157.984C398.006 157.421 397.271 156.612 396.65 155.632C395.76 154.245 395.097 152.514 394.657 150.745C394.166 148.747 393.948 146.691 394.01 144.946C394.166 140.558 395.646 138.191 397.323 138.026C399.766 137.784 401.345 139.214 403.85 141.988C406.345 144.757 408.488 142.846 408.939 143.845C409.373 144.766 410.559 147.409 409.689 152.088Z" fill="#ECB7B0"/>
<path d="M361.93 384.332C361.93 384.332 361.889 384.151 361.819 383.814C361.138 380.6 357.209 362.762 349.269 338.601C340.483 311.864 334.38 291.069 329.911 277.25C327.162 268.754 321.069 248.416 316.791 234.009C316.66 234.084 316.58 234.13 316.58 234.13C315.455 232.218 314.87 228.465 314.663 226.841C313.669 223.48 313.2 220.779 312.782 219.37C310.85 219.964 299.486 223.168 284.188 222.54C268.551 221.901 254.968 216.75 253.056 216C252.618 219.667 254.802 257.596 257.48 276.506C260.158 295.425 265.722 329.682 268.254 344.537C270.473 357.555 274.407 378.909 275.643 383.98C275.82 384.684 275.946 385.077 275.996 385.077C276.445 385.077 281.358 387.134 284.631 386.405C284.631 386.405 284.647 385.429 284.677 383.713C284.808 375.861 285.121 352.294 284.631 332.806C284.036 309.037 283.441 276.807 283.441 266.264C283.441 255.72 283.441 244.427 285.524 245.02C287.612 245.614 293.423 257.647 299.819 274.73C306.224 291.808 316.802 312.604 325.442 332.212C334.077 351.816 354.626 386.41 354.626 386.41C354.626 386.41 359.69 387.738 361.032 386.41C362.373 385.087 361.93 384.332 361.93 384.332Z" fill="url(#paint0_linear)"/>
<path d="M251.243 106.38C250.363 106.498 248.427 99.773 249.164 99.0167C249.895 98.2552 251.954 102.51 252.248 102.207C252.546 101.903 253.571 93.3929 254.303 93.7737C255.039 94.1544 254.521 101.373 255.039 101.219C255.551 101.07 255.994 92.6366 257.243 93.0122C258.491 93.3878 257.685 102.058 257.904 102.13C258.123 102.207 258.934 96.2022 260.183 96.8094C261.431 97.4217 259.377 104.79 259.596 104.939C259.819 105.093 261.058 100.535 261.874 100.843C262.68 101.147 259.357 111 259.357 111C259.357 111 257.456 108.602 255.168 107.203C253.944 106.452 252.293 106.246 251.243 106.38Z" fill="#5B2C28"/>
<path d="M259 110.92C259 110.92 255.173 105.747 250.695 106.281C250.695 106.281 246.807 118.131 242.047 128.958C237.277 139.775 230.43 152.588 219.71 149.608C209.348 146.729 202.414 141.066 179.9 137.642C179.179 138.711 178.458 139.427 177.949 139.084C177.5 138.781 177.308 138.111 177.258 137.259C153.024 133.935 141.054 135.115 129.683 136.205C118.267 137.299 113.855 139.856 110.946 124.531C108.041 109.206 104.507 91.748 104.507 91.748C104.507 91.748 96.1818 88.909 95.4658 90.4672C94.2607 93.0793 95.5919 111.984 97.2054 126.472C98.8139 140.965 100.11 147.52 108.344 151.691C116.583 155.861 129.189 151.993 134.65 156.355C140.106 160.722 142.098 165.785 142.193 178.982C142.294 192.184 142.193 221.073 142.193 221.073C142.193 221.073 154.003 225.536 176.139 224.946C198.275 224.346 202.939 220.08 202.939 219.777C202.939 219.48 202.838 194.463 202.939 184.736C203.035 175.008 202.142 168.755 203.63 167.661C205.117 166.572 219.412 172.628 227.551 171.04C235.689 169.451 247.599 157.737 253.357 138.282C259.121 118.827 259 110.92 259 110.92Z" fill="#23D840"/>
<path d="M49.2252 70.7725C49.8734 70.5046 53.8979 69.8606 54.124 69.0208C54.3451 68.1862 50.5617 68.5674 50.7074 67.9595C50.8582 67.3515 55.9027 61.7977 54.8576 60.9579C53.8226 60.1232 50.1095 65.6771 49.8181 65.3732C49.5217 65.0692 54.0436 59.9635 52.9383 59.0928C51.8228 58.2273 48.1148 63.6987 48.1148 63.6987C48.1148 63.6987 49.2252 59.6544 48.562 59.0928C47.8938 58.5261 45.5223 63.4721 45.5223 63.4721C45.5223 63.4721 45.889 60.8085 45.0047 60.5045C44.1104 60.1954 43 66.2851 43 66.2851C43 66.2851 45.7383 72.2202 49.2252 70.7725Z" fill="#ECB7B0"/>
<path d="M96.0292 90.3936C95.8943 90.222 96.2542 87.4634 96.5491 86.9307C96.849 86.3979 100.753 85.1338 103.042 86.9307C105.332 88.7276 104.962 92.1905 104.997 91.9918C105.032 91.7932 97.3589 92.1273 96.0292 90.3936Z" fill="#5B2C28"/>
<path d="M96.7966 88.9064C97.6994 88.2448 95.3686 82.2027 94.2769 83.0885C93.1898 83.9798 95.5713 89.8032 96.7966 88.9064Z" fill="#5B2C28"/>
<path d="M98.5115 87.9954C99.4784 87.8855 99.0362 81.9564 96.9492 81.0673C94.8622 80.1881 96.5955 88.2201 98.5115 87.9954Z" fill="#5B2C28"/>
<path d="M99.9723 87.9995C100.671 87.97 101.063 84.5955 100.992 83.0014C100.915 81.4074 99.5895 79.7397 98.5559 80.034C97.527 80.3234 97.8859 88.0731 99.9723 87.9995Z" fill="#5B2C28"/>
<path d="M101.87 87.9767C102.755 88.3229 103.856 84.721 103.991 82.7194C104.121 80.7177 102.84 79.3181 101.87 80.3465C100.894 81.3799 100.539 87.46 101.87 87.9767Z" fill="#5B2C28"/>
<path d="M103.268 88.9254C104.682 89.5985 108.276 85.5321 106.533 84.2044C104.79 82.8815 102.148 88.3915 103.268 88.9254Z" fill="#5B2C28"/>
<path d="M315.248 226.086C314.727 225.508 308.59 228.018 308.812 228.643C309.039 229.273 314.484 228.08 314.484 228.08C314.484 228.08 307.863 230.284 308.002 230.971C308.157 231.706 311.359 231.181 312.195 230.623C313.04 230.06 314.479 229.497 314.479 229.497C314.479 229.497 308.631 233.471 308.905 234.005C309.415 235.026 314.933 231.892 314.933 231.892C314.933 231.892 311.359 235.489 311.818 235.909C312.406 236.457 316.465 234.377 316.991 233.748C316.996 233.738 317.212 228.256 315.248 226.086Z" fill="#ECB7B0"/>
<path d="M81.7873 130.408C81.5768 131.263 81.2398 132.335 80.8239 133.477C80.8239 133.477 80.8239 133.477 80.8239 133.492C80.3291 134.846 79.7184 136.284 79.0972 137.589C78.2812 139.279 77.3915 140.727 76.6597 141.36C75.9174 142.003 75.491 142.442 75.2436 142.774C75.1173 142.808 74.9962 142.828 74.8698 142.867C73.8906 143.124 72.9167 142.991 72.006 142.61C71.9323 142.482 71.8586 142.353 71.7796 142.225C71.6217 141.958 71.4479 141.696 71.2374 141.429C70.6635 140.718 70.0686 139.937 69.4948 139.106C68.6736 137.94 67.8944 136.69 67.2785 135.449C66.7626 134.411 66.3467 133.383 66.115 132.424C66.0045 131.52 65.9676 130.675 66.0308 129.948C66.0571 129.854 66.0677 129.761 66.0887 129.681C67.0942 126.681 68.7262 128.431 71.6848 127.418C72.8272 127.018 74.038 126.202 75.1699 125.387C75.7806 124.981 76.3386 124.556 76.844 124.176C77.9548 123.39 78.8971 122.846 79.5341 123.039C81.0661 123.513 82.5665 127.27 81.7873 130.408Z" fill="#ECB7B0"/>
<path d="M50.7605 155.294C52.902 153.47 51.8436 151.404 50.7506 147.746C47.7732 147.246 45.2459 145.977 42.5158 143.345C35.8934 136.974 31.8032 130.977 31.4125 117.478C31.1652 108.813 44.2518 76.8977 48.7921 70.1883C48.7921 70.1883 47.1896 68.3948 45.7257 67.354C44.2667 66.3082 43.0203 66 43.0203 66C39.8797 68.5463 33.5293 76.1652 26.5903 88.6898C19.6563 101.214 16.9609 108.454 17.0004 120.453C17.04 131.573 19.142 147.539 29.998 160.068C32.9655 163.494 37.1793 165.313 41.0173 167C41.0074 166.904 40.9876 166.813 40.9777 166.707C40.6068 160.513 48.1293 157.532 50.7605 155.294Z" fill="#31F7F7"/>
<path d="M74.9726 143.28C73.9544 143.56 72.9471 143.414 72 143C72.7062 144.415 72.8047 145.82 72.3942 147.106C72.323 147.327 72.2354 147.542 72.1423 147.757C72.1697 147.784 72.1971 147.816 72.2354 147.838C72.969 148.198 73.9763 147.967 74.5292 147.047C74.5785 146.966 74.6168 146.864 74.6551 146.778L75 143.85C74.9945 143.635 74.9781 143.447 74.9726 143.28Z" fill="#ECB7B0"/>
<path d="M88.007 140.768C85.6296 137.277 83.4738 134.083 83.6954 127.03C83.9171 119.977 80.7187 115.077 74.1708 115.002C70.0859 114.951 65.6232 116.038 63.7646 123.317C61.9111 130.591 60.0525 133.419 57.3728 135.275C54.6983 137.136 49.0469 139.425 50.2356 144.853C50.4522 145.854 50.7141 146.765 50.966 147.585C52.0841 151.227 53.162 153.29 50.976 155.101C48.2964 157.329 40.6404 160.302 41.0131 166.465C41.0232 166.565 41.0434 166.656 41.0534 166.757C41.4564 170.565 44.9268 171.893 49.3995 171.993C51.8071 172.049 54.4918 171.752 57.1512 171.294C64.8878 169.956 68.6755 165.65 68.605 161.937C68.5244 158.225 64.364 152.726 68.3834 150.724C70.1967 149.818 71.5113 148.576 72.1611 147.157C72.2517 146.961 72.3273 146.755 72.3927 146.549C72.7705 145.346 72.6798 144.033 72.0301 142.71C71.9646 142.579 71.8941 142.449 71.8135 142.318C71.6624 142.046 71.4911 141.78 71.2897 141.513C69.3052 138.882 67.1443 135.069 66.3888 132.357C66.2025 131.688 66.137 130.571 66.3082 129.827C66.3334 129.736 66.3435 129.641 66.3687 129.555C67.3307 126.507 68.8972 128.287 71.7228 127.251C72.8158 126.844 73.9743 126.019 75.0623 125.174C75.6214 124.746 76.1603 124.318 76.664 123.941C77.7217 123.156 78.6284 122.598 79.2378 122.794C80.7036 123.272 82.1391 127.1 81.3936 130.29C80.6482 133.484 78.2053 139.878 76.4827 141.432C75.7624 142.081 75.3645 142.544 75.1278 142.866C74.8004 143.314 74.7953 143.495 74.7953 143.495L74.478 146.232L74.4478 146.483C79.9329 146.372 85.1612 146.755 89.9512 147.907C90.1779 146.418 89.6289 143.143 88.007 140.768Z" fill="#8E2D2D"/>
<path d="M105.991 269.846C105.9 270.128 103.708 272.273 99.9671 274.337C99.2916 274.72 98.5506 275.089 97.7642 275.447C97.6734 275.492 97.5625 275.543 97.4668 275.578C96.0099 276.234 94.422 276.819 92.6677 277.284C90.6765 277.819 87.9998 278.268 84.8693 278.57C84.7735 278.581 84.6626 278.591 84.5567 278.606C82.011 278.838 79.1729 278.989 76.1735 278.999C72.0248 279.014 67.5786 278.772 63.0972 278.192C63.0014 278.177 62.8955 278.162 62.7998 278.141C60.5868 277.854 58.3687 277.475 56.1759 277.001C54.0082 276.522 51.8709 275.962 49.794 275.285C46.8399 274.301 44.3043 273.322 42.1266 272.379C42.0308 272.338 41.9401 272.293 41.8443 272.258C37.9577 270.552 35.2305 268.942 33.3754 267.666C30.9355 265.97 30.003 264.85 30.003 264.85C29.8517 255.388 35.5027 238.029 40.7907 226.705C46.0787 215.382 47.9338 214.706 48.6043 213C48.6043 213 50.3283 214.812 54.4115 216.648C54.4972 216.699 54.588 216.734 54.6837 216.77C57.5823 218.036 61.605 219.303 66.9636 219.974C67.0594 219.984 67.1653 220.004 67.261 220.009C67.9416 220.095 68.6423 220.166 69.3682 220.221C73.0733 220.534 76.1534 220.559 78.7041 220.418C78.81 220.403 78.9058 220.403 79.0015 220.403H79.0167C82.5907 220.181 85.0961 219.621 86.7899 219.066C86.8857 219.04 86.9815 219.01 87.0772 218.985C88.7761 218.394 89.5423 217.849 89.6834 217.769C89.6834 217.769 93.6255 224.768 99.0698 237.434C104.509 250.095 106.137 269.391 105.991 269.846Z" fill="#9E2ECC"/>
<path d="M30.8291 387.267C28.091 387.869 25.5468 386.557 25.5468 386.557C25.5468 386.557 25.5418 386.261 25.5368 385.7C23.1765 387.165 19.4396 390.406 20.0707 391.116C20.7614 391.892 24.866 393.811 34.4516 387.425C34.4516 387.425 35.4802 385.24 34.7199 384C33.8106 385.919 32.6776 386.859 30.8291 387.267Z" fill="#13005E"/>
<path d="M84.1303 384.461C84.0917 384.446 84.0627 384.326 84.0338 384.155C84.0241 384.161 84.0048 384.171 84.0048 384.171L84 384C84.0048 384.083 84.0048 384.171 84.0048 384.249C84.029 385.446 84.0821 387.026 86.1189 387.959C88.3053 388.948 95.2362 393.606 98.2817 391.425C100.96 389.508 95.5161 385.72 92.3016 384.104C92.1713 384.731 92.0748 385.109 92.012 385.207C91.3508 386.29 84.5116 384.663 84.1303 384.461Z" fill="#13005E"/>
<path d="M33.3367 267.9C31.7218 277.761 28.3155 302.6 26.4281 321.09C24.6013 339.015 25.0454 379.744 25.1261 386.103C25.1362 386.653 25.1362 386.951 25.1362 386.951C25.1362 386.951 27.72 388.242 30.5006 387.652C32.3778 387.248 33.5284 386.32 34.4469 384.422C34.8859 383.519 35.2795 382.409 35.658 380.996C36.849 376.62 40.1191 366.689 41.1132 349.501C42.1074 332.318 43.6061 332.908 48.5769 308.771C51.9529 292.386 54.7284 282.136 56.1616 277.241C53.9866 276.767 51.8368 276.202 49.7678 275.52C41.3756 272.765 36.2686 269.924 33.3367 267.9Z" fill="#ECB7B0"/>
<path d="M101.529 287.909C101.024 281.576 100.444 277.282 99.9948 274.582C97.9813 275.692 95.5287 276.777 92.6876 277.534C89.0189 278.513 83.0389 279.219 76.1757 279.245C77.5635 289.247 79.5215 306.546 81.0607 321.887C82.7512 338.676 83.2458 349.698 83.1448 361.92C83.059 373.093 83.2962 382.666 83.6444 384.372C83.6747 384.538 83.705 384.649 83.7454 384.669C84.144 384.866 91.2948 386.451 91.9912 385.406C92.0568 385.31 92.1628 384.937 92.294 384.331C93.5606 378.659 97.5624 352.574 99.5356 340.266C101.721 326.656 102.523 300.43 101.529 287.909Z" fill="#ECB7B0"/>
<path d="M401.175 162.001C401.438 161.956 401.508 160.861 401.488 159.347C400.625 159.195 399.808 158.877 399.091 158.373C395.766 156.041 394.226 149.385 394.373 144.813C394.524 140.241 395.973 137.783 397.603 137.612C399.984 137.364 401.529 138.853 403.961 141.735C406.393 144.616 408.483 142.628 408.927 143.673C409.371 144.712 410.718 147.886 409.371 153.599C408.674 156.551 406.843 158.337 404.779 159.064C404.657 160.048 404.567 161.133 404.688 161.648C411.783 161.052 418.636 161.083 423.773 161.461C422.269 159.518 420.831 157.469 419.706 155.284C415.83 147.735 417.021 142.668 415.83 137.576C414.639 132.485 410.663 128.165 400.832 130.254C390.997 132.338 392.289 142.174 392.682 148.512C393.051 154.401 392.223 160.851 391.94 162.768C394.151 162.647 396.603 162.47 399.399 162.183C400.09 161.986 400.989 162.031 401.175 162.001Z" fill="#E2D93B"/>
<path d="M428.345 190.857C427.452 196.877 426.221 214.666 427.099 223.674C427.871 222.861 428.361 221.761 428.744 220.959C429.839 218.673 431.726 219.768 437.091 219.667C442.455 219.566 447.224 218.874 448.46 210.427C449.707 201.984 443.051 196.519 438.776 191.952C436.334 189.333 434.82 185.871 433.785 182.308C430.586 181.844 429.254 184.761 428.345 190.857Z" fill="#E2D93B"/>
<path d="M365.414 176.037C366.177 175.004 367.267 173.059 367.925 169.765C369.015 164.335 368.995 162.094 368.995 162.094L369 162.099C367.262 160.584 360.944 154.653 358.714 146.571C356.117 137.17 352.923 115.484 355.449 99.6404C356.197 94.9424 357.895 93.7942 358.121 92.8315C358.342 91.8739 358.046 91.3524 357.157 91.7987C356.268 92.2399 355.303 94.2404 355.007 93.8744C354.711 93.5034 356.042 87.5068 355.007 87.0655C353.972 86.6193 353.525 92.5407 353.525 92.5407C353.525 92.5407 353.525 86.5441 352.41 86.0277C351.295 85.5112 351.597 92.3953 351.597 92.3953C351.597 92.3953 351.004 87.2109 350.336 86.9903C349.668 86.7697 349.668 93.4282 349.668 93.2076C349.668 92.987 348.925 88.3992 348.111 88.5497C347.292 88.6901 347.222 93.6538 345.961 100.242C344.701 106.83 342.029 116.452 343.365 133.254C344.706 150.055 346.926 155.24 349.522 160.94C352.114 166.641 361.536 175.3 364.575 177C364.57 176.995 364.912 176.664 365.414 176.037Z" fill="#ECB7B0"/>
<path d="M505.923 147.918C505.38 147.272 503.423 151.775 503.128 151.627C502.823 151.48 504.724 146.071 503.875 145.568C503.026 145.064 500.627 151.123 500.627 151.123C500.627 151.123 501.573 142.362 500.678 142.011C499.773 141.66 498.177 149.521 497.771 149.572C497.369 149.623 497.273 143.461 496.673 143.517C496.073 143.568 495.773 150.426 495.621 150.625C495.473 150.823 493.024 145.919 492.419 146.621C491.819 147.318 494.518 153.983 494.518 154.985C494.518 155.987 492.769 161.848 487.966 169.21C483.163 176.567 476.561 183.532 467.91 182.779C459.254 182.026 448.047 173.367 448.047 173.367L443 189.012C444.652 190.589 452.759 197.203 466.863 197.951C480.973 198.704 489.151 190.675 492.231 184.28C496.729 174.939 503.113 156.71 503.489 155.285C503.855 153.856 506.477 148.569 505.923 147.918Z" fill="#ECB7B0"/>
<path d="M396.624 383.985C396.441 383.762 396.137 383.234 395.741 382.478C392.886 383.467 388.59 385.594 389.031 387.397C389.528 389.413 395.122 389.229 400.011 388.463C404.9 387.702 407 387.004 407 387.004C407 387.004 406.305 382.202 405.402 381C405.468 381.509 405.499 381.892 405.499 382.081C405.504 384.93 397.922 385.546 396.624 383.985Z" fill="#13005E"/>
<path d="M404.902 381.012C404.114 374.172 398.575 341.809 396.109 330.716C384.346 327.539 378.161 324.502 375 322C376.83 328.386 382.222 346.868 384.777 354.929C387.429 363.307 393.222 377.678 395.581 382.561C395.962 383.348 396.256 383.897 396.432 384.129C397.685 385.754 405 385.113 405 382.142C405 381.935 404.971 381.542 404.902 381.012Z" fill="#ECB7B0"/>
<path d="M462.109 375.455C461.711 378.159 455.057 380.373 454.361 380.079C454.275 380.049 454.124 379.873 453.927 379.594C451.88 381.818 449.103 386.638 449.002 387.99C448.906 389.337 452.672 389.337 455.354 387.99C458.031 386.638 462.896 380.618 462.992 380.103C463.093 379.599 462.246 375.866 462.069 374H462.064C462.125 374.715 462.14 375.22 462.109 375.455Z" fill="#13005E"/>
<path d="M461.941 373.72C461.42 366.545 456.911 337.738 453.154 325C448.67 328.018 441.607 330.905 433 332.503C435.859 339.305 441.973 353.65 445.43 362.221C448.691 370.329 452.272 377.539 453.613 379.474C453.815 379.761 453.97 379.943 454.057 379.973C454.769 380.275 461.58 377.998 461.988 375.216C462.014 374.975 461.998 374.456 461.941 373.72Z" fill="#ECB7B0"/>
<path d="M456 322.304C455.16 323.246 454.045 324.213 452.67 325.171C448.324 328.209 441.484 331.106 433.133 332.712C424.457 334.383 414.141 334.652 403.345 332.17C400.885 331.608 398.62 331.046 396.515 330.499C384.504 327.308 378.188 324.254 374.948 321.742C373.138 320.339 372.288 319.108 371.943 318.116C371.247 316.135 367.902 308.751 368.002 295.983C368.107 283.235 369.972 269.966 375.668 254.413C378.188 247.53 380.628 241.285 382.573 236.453C384.524 231.617 385.979 228.198 386.494 226.993C386.494 226.993 388.174 228.882 393.284 230.32C393.474 230.371 393.664 230.416 393.864 230.472C395.945 231.014 398.56 231.47 401.79 231.693C401.98 231.718 402.18 231.728 402.38 231.743C403.765 231.84 405.266 231.885 406.886 231.885C408.906 231.885 410.736 231.789 412.401 231.632C412.601 231.612 412.801 231.586 412.991 231.561C416.596 231.166 419.372 230.437 421.487 229.636C421.687 229.566 421.877 229.49 422.052 229.419C425.992 227.808 427.357 226 427.357 226C427.357 226 437.498 248.639 443.889 269.774C450.295 290.898 456 322.304 456 322.304Z" fill="#A9A8E1"/>
<path d="M408.893 161.769C408.428 161.379 405.206 162.396 404.831 161.715C404.803 161.671 404.784 161.602 404.765 161.528C404.651 161.024 404.736 159.958 404.85 159C403.84 159.37 402.767 159.454 401.757 159.267C401.775 160.753 401.709 161.819 401.462 161.863C400.888 161.932 400.338 161.992 399.792 162.051C399.422 162.164 399.118 162.357 399.033 162.688C398.8 163.611 399.83 168.76 401.182 172.605C402.535 176.441 403.379 178.09 404.409 177.996C405.434 177.902 406.131 172.65 407.166 168.622C408.195 164.583 409.363 162.155 408.893 161.769Z" fill="#ECB7B0"/>
<path d="M430.434 162.25C428.925 161.846 426.461 161.507 423.398 161.275C418.278 160.896 411.454 160.865 404.378 161.462C404.398 161.538 404.418 161.608 404.449 161.654C404.846 162.351 408.256 161.31 408.753 161.709C409.251 162.104 408.014 164.591 406.923 168.726C405.832 172.851 405.087 178.229 404.001 178.325C402.91 178.421 402.02 176.733 400.581 172.805C399.148 168.867 398.057 163.6 398.303 162.65C398.394 162.306 398.715 162.109 399.108 161.998C396.322 162.291 393.877 162.468 391.675 162.584C384.936 162.948 380.41 162.731 375.074 163.347C370.995 163.817 368.476 162.008 368.436 161.982L368.431 161.977C368.431 161.977 368.451 164.237 367.359 169.712C366.701 173.033 365.609 174.994 364.845 176.035C364.352 176.713 364 176.996 364 176.996C366.238 178.588 372.826 180.853 375.285 180.757C377.744 180.661 378.549 181.551 379.64 183.84C380.732 186.13 378.75 191.004 378.946 195.679C379.142 200.36 385.675 205.041 387.264 209.611C388.848 214.186 386.47 222.845 385.962 227.122C385.962 227.122 390.332 232 406.47 232C422.603 232 427.059 226.136 427.059 226.136C426.918 225.398 426.803 224.539 426.707 223.578C425.832 214.555 427.054 196.736 427.949 190.705C428.859 184.599 430.187 181.677 433.376 182.142C433.667 182.182 433.964 182.248 434.291 182.344C438.153 183.537 443.006 188.491 443.006 188.491L448 172.947C445.858 171.324 434.884 163.448 430.434 162.25Z" fill="url(#paint1_linear)"/>
<path d="M178.368 132.462C178.177 132.317 178.005 132.156 177.838 132C177.588 133.662 174.918 137.226 175.002 138.826C175.051 139.704 178.928 141.424 179.419 140.904C179.767 140.535 179.973 138.733 180.4 137.787C181.053 136.338 181.534 134.717 182 133.642C180.807 133.74 179.571 133.382 178.368 132.462Z" fill="#3A1815"/>
<path d="M195.775 123.045C195.174 124.631 194.466 126.232 193.718 127.87C193.225 128.933 192.686 129.907 192.047 130.778C189.936 133.833 187.079 135.766 184.044 135.98C182.164 136.098 180.238 135.596 178.344 134.305C178.059 134.091 177.789 133.869 177.512 133.641C175.332 131.759 174.076 129.162 173.375 126.845C173.344 126.668 172.559 122.646 173.021 121.547C173.514 120.433 170.872 120.13 169.855 117.289C169.47 116.241 169.293 115.289 169.308 114.493C169.385 114.131 169.47 113.799 169.616 113.482C169.878 112.928 170.179 112.545 170.487 112.264C170.679 112.176 170.872 112.109 171.087 112.057C172.035 111.895 172.828 112.353 173.676 112.744C173.73 112.795 173.783 112.869 173.822 112.928C173.822 112.928 173.876 112.906 173.968 112.854C174.662 113.172 174.977 109.423 175.378 108.641C176.148 107.165 176.559 104.317 178.808 103.24C180.349 102.502 181.416 101 186.808 101C189.119 101 191.712 101.867 194.808 103.24C197.011 104.214 196.946 104.214 197.662 105.904C197.87 106.391 197.955 107.254 198.217 107.896C198.302 108.095 198.34 109.792 198.263 109.991C198.54 114.382 197.485 118.639 195.775 123.045Z" fill="#5B2C28"/>
<path d="M138.159 386.426C134.274 387.727 132.579 385.855 132.579 385.855C132.569 385.675 132.569 385.304 132.559 384.807C129.478 385.889 125.82 388.254 126.007 389.789C126.209 391.418 131.587 391.223 136.262 390.267C140.942 389.312 142.834 387.932 142.834 387.805C142.834 387.679 144.332 383.628 143.932 381C143.806 381.458 143.699 381.785 143.634 381.916C142.839 383.545 142.045 385.124 138.159 386.426Z" fill="#1B555C"/>
<path d="M211.303 386.362C207.404 386.641 203.195 384.595 203.195 384.595C203.195 384.595 203.154 384.42 203.078 384.109C202.798 386.457 203.296 389.528 204.201 389.802C205.101 390.076 221.505 390.265 222.811 388.961C223.95 387.822 219.731 385.389 215.705 384C215.425 384.846 214.419 386.14 211.303 386.362Z" fill="#1B555C"/>
<path d="M211.952 320.904C211.36 307.716 206.921 257.166 205.923 244.482C204.934 231.793 203.164 220 203.164 220C203.164 220.302 198.524 224.557 176.503 225.161C154.482 225.75 142.734 221.294 142.734 221.294C142.534 224.366 138.591 263.717 137.793 275.51C137.006 287.303 133.946 323.784 133.449 335.874C132.993 347.083 132.953 378.307 133.033 384.853C133.043 385.371 133.043 385.749 133.053 385.935C133.053 385.935 134.733 387.869 138.586 386.525C142.438 385.18 143.221 383.544 144.013 381.862C144.079 381.721 144.179 381.388 144.309 380.915C145.699 375.673 150.499 351.337 153.394 331.81C156.554 310.501 161.49 277.987 163.958 268.969C166.425 259.946 170.378 242.896 172.846 243.591C175.314 244.281 179.954 258.954 183.114 278.581C186.269 298.204 194.27 340.134 196.342 351.035C198.228 360.965 202.657 380.507 203.435 383.921C203.51 384.249 203.55 384.44 203.55 384.44C203.55 384.44 207.698 386.62 211.551 386.323C214.626 386.086 215.619 384.707 215.9 383.81C215.975 383.579 216 383.382 216 383.241C216 382.557 212.544 334.081 211.952 320.904Z" fill="#3D97C2"/>
<path d="M289.874 119.312C289.654 121.405 287.15 125.886 285.306 127.605C285.306 127.605 285.531 127.686 285.895 127.793C285.316 128.359 284.691 128.834 284.031 129.204C283.062 129.745 282.037 130.053 280.947 129.992C280.762 129.982 280.593 129.947 280.413 129.922C277.629 129.507 275.934 127.221 274.985 124.308C274.395 122.478 274.1 120.394 274.03 118.366C274.025 118.138 274.005 117.901 274.005 117.673C273.935 112.262 274.565 107.271 276.189 105.051C276.204 105.04 276.219 105.01 276.229 105C276.429 105.202 276.639 105.389 276.889 105.571C280.063 107.958 282.637 107.438 283.746 109.379C284.856 111.316 287.22 112.889 288.689 114.305C290.174 115.721 290.104 117.223 289.874 119.312Z" fill="#ECB7B0"/>
<path d="M338.412 170.019C329.332 155.04 317.454 141.059 304.78 137.291C298.402 135.391 290.868 133.754 283.061 132.887C282.468 134.373 281.17 135.25 280.105 134.585C279.471 134.192 279.426 133.446 279.568 132.565C272.962 132.041 266.255 132.121 259.968 133.129C245.104 135.507 235.319 138.782 230.731 135.804C226.138 132.832 229.834 121.722 232.029 115.178C234.219 108.633 248.475 81.3557 248.475 81.3557L240.896 76C236.718 79.4714 226.934 92.3089 221.55 102.451C216.161 112.598 211.871 125.592 213.266 135.905C214.66 146.218 219.861 152.96 232.723 154.35C245.59 155.746 255.877 153.559 256.678 155.443C257.474 157.328 256.313 163.434 255.111 178.604C253.915 193.78 252.982 215.741 252.982 215.741C252.982 215.741 253.073 215.777 253.225 215.837C255.147 216.593 268.8 221.747 284.516 222.387C299.892 223.017 311.005 219.898 312.952 219.308C313.155 219.248 313.256 219.213 313.256 219.213C313.256 219.213 309.484 198.485 308.126 187.079C306.772 175.677 303.375 161.293 306.275 161.494C309.17 161.696 318.453 170.619 324.734 182.025C331.026 193.432 329.028 198.888 326.63 206.521C324.232 214.159 315.051 225.914 315.051 225.914C315.051 225.914 315.081 226.216 315.147 226.7C315.36 228.322 315.943 232.085 317.074 234C317.074 234 317.15 233.955 317.287 233.879C319.233 232.715 334.508 223.319 340.207 212.179C346.296 200.269 347.492 184.993 338.412 170.019Z" fill="url(#paint2_linear)"/>
<path d="M281.004 130.778C280.825 130.768 280.66 130.733 280.49 130.703C280.35 131.401 280.165 132.119 280.063 132.762C279.928 133.64 279.971 134.384 280.577 134.775C281.595 135.438 282.832 134.564 283.404 133.083C283.476 132.902 283.539 132.716 283.583 132.516C283.806 131.572 283.927 130.658 284 130C283.06 130.537 282.056 130.839 281.004 130.778Z" fill="#ECB7B0"/>
<path d="M276.313 385.431C276.26 385.431 276.129 385.019 275.945 384.28C273.244 385.046 268.816 386.382 269.006 388.721C269.211 391.32 279.682 389.239 283.199 388.721L286 388.093L285.374 384C285.342 385.806 285.326 386.825 285.326 386.825C281.904 387.591 276.776 385.431 276.313 385.431Z" fill="#3A28B1"/>
<path d="M362.164 384C362.239 384.318 362.275 384.496 362.275 384.496C362.275 384.496 362.717 385.219 361.38 386.491C360.049 387.764 355 386.491 355 386.491C355 386.491 358.416 388.973 360.988 390.298C363.556 391.629 368.7 390.925 368.991 389.378C369.238 388.13 364.148 385.123 362.164 384Z" fill="#3A28B1"/>
<path d="M290.659 103.694C287.605 100.568 278.933 94.1639 274.917 98.4096C273.759 99.635 273.336 102.655 275.852 104.985C276.059 105.177 276.281 105.373 276.54 105.555C279.822 107.935 282.488 107.416 283.631 109.352C284.778 111.283 287.212 112.861 288.737 114.263C290.272 115.665 290.194 117.168 289.957 119.245C289.729 121.333 287.14 125.8 285.233 127.515C285.233 127.515 285.47 127.606 285.853 127.701C287.062 128.029 289.786 128.483 291.414 126.617C293.006 124.792 292.732 124.434 292.68 123.183C291.347 123.587 289.796 123.557 289.181 123.007V123.002C289 122.81 289.372 121.867 290.019 120.904C290.556 120.097 291.28 119.275 292.05 118.882C292.721 118.539 293.337 118.529 293.827 118.756C294.742 117.087 295.895 115.458 295.993 113.209C296.148 109.796 293.719 106.821 290.659 103.694Z" fill="#5E1B1B"/>
<path d="M293.844 119.157C293.331 118.923 292.697 118.938 292.008 119.287C291.213 119.692 290.466 120.539 289.911 121.37C289.245 122.368 288.86 123.339 289.047 123.531V123.536C289.682 124.103 291.283 124.134 292.659 123.718C293.844 123.365 294.868 122.69 294.975 121.734C295.119 120.482 294.633 119.52 293.844 119.157Z" fill="#ECB7B0"/>
<path d="M257.352 38.3199C257.145 38.4516 257.044 38.636 257.009 38.852C256.777 40.506 261.117 44.5096 264.888 48.1707C269.153 52.3217 273.624 55.1189 274.92 53.5649C276.205 52.0056 261.717 35.5175 257.352 38.3199Z" fill="#FDB001"/>
<path d="M248.772 44.6022C250.83 41.6678 252.213 43.9863 252.814 45.4836C253.203 44.7174 253.601 43.9813 254 43.2752C253.34 41.9532 251.716 39.5596 248.782 40.0704C244.77 40.7614 242.412 49.1842 249.791 53L249.801 52.985C250.027 52.1788 250.288 51.3875 250.569 50.6114C249.673 50.1557 246.291 48.1276 248.772 44.6022Z" fill="#FDB001"/>
<path d="M271.268 59C270.714 59.8419 270.166 60.6267 269.637 61.3438C270.62 61.5725 271.842 62.139 271.906 63.537C271.99 65.6937 268.672 67.1073 266.531 65.1117C265.642 66.0523 264.801 66.8111 264.01 67.4139L264 67.4191C265.187 68.8535 272.88 72.429 275.891 67.4191C278.655 62.8302 275.931 59.291 271.268 59Z" fill="#FDB001"/>
<path d="M251.685 66L247.312 71.8189C247.312 71.8189 241.347 72.7145 240 74.5057C241.647 72.8646 251.802 77.7128 251.42 81C251.878 79.1638 251.919 75.0761 250.327 73.1848L255 68.0814C254.492 67.8262 254.044 67.5761 253.632 67.3909C252.91 67.0607 252.254 66.5904 251.685 66Z" fill="#E99B00"/>
<path d="M264.91 47.9699C261.125 44.4498 256.757 40.6005 256.99 39.0101L256.975 39C256.138 40.1548 255.247 41.5324 254.365 43.0418C253.949 43.7559 253.544 44.4954 253.144 45.2754C252.307 46.9012 251.507 48.6384 250.838 50.4668C250.549 51.2519 250.28 52.0521 250.047 52.8676C249.824 53.6222 249.622 54.387 249.459 55.1518C248.375 60.1053 249.302 63.7368 251.279 65.8134C251.846 66.411 252.5 66.8922 253.22 67.2214C253.63 67.4088 254.076 67.662 254.583 67.9203C256.665 68.9738 259.645 70.083 264.013 66.9074C264.824 66.3148 265.686 65.5753 266.598 64.6636C267.596 63.6659 268.66 62.4554 269.78 60.9916C270.323 60.2876 270.88 59.5279 271.453 58.7074C272.578 57.0967 273.748 55.2683 275 53.1563C273.693 54.6504 269.203 51.961 264.91 47.9699Z" fill="#FDC130"/>
<path d="M240.154 74.3558C240.106 74.4256 240.048 74.5008 240.014 74.5867C239.614 75.5852 247.942 85.8066 250.624 82.2527C250.687 82.1722 250.735 82.0863 250.783 81.995C250.855 81.8286 250.928 81.6031 250.99 81.324C251.347 77.7916 241.712 72.5896 240.154 74.3558Z" fill="#CB8700"/>
<path d="M244.63 74.9615C246.073 74.4342 242.934 68.7873 241.411 69.0062C239.876 69.2251 243.02 75.5486 244.63 74.9615Z" fill="#ECB7B0"/>
<path d="M245.747 73.9373C246.514 73.4937 245.399 68.1867 244.245 66.5096C243.09 64.8326 242.543 67.6132 243.466 70.2262C244.385 72.8337 245.055 74.3322 245.747 73.9373Z" fill="#ECB7B0"/>
<path d="M247.129 71.9986C248.717 72.1074 248.027 65.7342 245.922 66.0086C243.812 66.2925 245.804 71.9087 247.129 71.9986Z" fill="#ECB7B0"/>
<path d="M248.498 71.9976C249.276 71.8793 249.257 67 247.671 67C246.081 67 247.714 72.1258 248.498 71.9976Z" fill="#ECB7B0"/>
<path d="M249 74.1265C249 75.6661 254.931 75.0998 254.999 72.9828C255.078 70.8769 249 72.5814 249 74.1265Z" fill="#ECB7B0"/>
<path d="M262.848 50.6921C259.997 49.1429 255.329 49.486 254.431 54.2145C253.537 58.938 258.801 64.3074 264.024 61.769C269.262 59.2357 266.724 52.8015 262.848 50.6921Z" fill="#A9A8E1"/>
<path d="M257.857 53.7956C257.433 55.0774 261.137 54.5425 261.137 54.5425C261.137 54.5425 257.489 58.7865 258.23 59.6091C258.977 60.4266 263.07 53.7906 263.07 53.7906C263.07 53.7906 258.16 52.9024 257.857 53.7956Z" fill="#13005E"/>
<path d="M290.001 72.7566C289.952 72.5293 292.262 71 292.262 71L294 79.6177L292.336 80L290.001 72.7566Z" fill="#A9A8E1"/>
<path d="M316 86.3902L318.312 85L322 89.3415L321.385 91L316 86.3902Z" fill="#13005E"/>
<path d="M371 107H373.573L374 113.824C374 113.824 372.224 114.221 372.286 113.824C372.349 113.421 371 107 371 107Z" fill="#3A28B1"/>
<path d="M335 48.7366V51L341 49.4276V46L335 48.7366Z" fill="#3A28B1"/>
<path d="M300 37H301.967L304 29.0908C304 29.0908 301.412 26.7872 301.475 27.016C301.537 27.25 300 37 300 37Z" fill="#FDC130"/>
<path d="M253.615 18.8298C253.874 18.8298 255.618 20 255.618 20L256 11L252 11.5157L253.615 18.8298Z" fill="#F44234"/>
<path d="M232.165 53L235 53.2902L232.165 60L229 59.4097L232.165 53Z" fill="#13005E"/>
<path d="M211.756 73L213 75.4369L206.622 81C206.622 81 206 77.2043 206 77.0025C206 76.7957 211.756 73 211.756 73Z" fill="#3A28B1"/>
<path d="M201.853 5.98969C201.903 6.22006 204 2.51407 204 2.51407C204 2.51407 201.552 0.741199 199.184 0L198 1.32715C198 1.33215 201.186 2.95979 201.853 5.98969Z" fill="#A9A8E1"/>
<path d="M125.308 32L128 29.4215L125.308 21L122 24.6342C122.005 24.6342 124.487 28.6382 125.308 32Z" fill="#FDC130"/>
<path d="M239.493 394.238C233.866 395.166 227.785 400.682 231.636 408.191C235.491 415.695 248.562 417.446 253.068 408.307C257.569 399.158 247.128 392.981 239.493 394.238Z" fill="#FFCF71"/>
<path d="M235.925 403.912C236.718 406.157 241.274 401.424 241.274 401.424C241.274 401.424 240.795 411.239 242.713 411.567C244.625 411.895 243.147 398.295 243.147 398.295C243.147 398.295 235.365 402.347 235.925 403.912Z" fill="#C88500"/>
<path d="M54.6679 217.007C50.439 227.15 44.3076 247.094 42.0973 272.614C42.0014 272.573 41.9106 272.528 41.8147 272.492C44.0402 247.003 50.1564 227.039 54.3954 216.881C54.4812 216.936 54.5721 216.972 54.6679 217.007Z" fill="black"/>
<path d="M67.0115 250.894C66.0779 258.645 64.781 267.249 63.8272 273.532C63.5395 275.364 63.2923 277.044 63.0904 278.432C62.9945 278.417 62.8885 278.402 62.7927 278.382C62.9743 277.17 63.2065 275.571 63.5345 273.497C64.4883 267.214 65.7852 258.61 66.7137 250.863C68.1923 238.474 67.5262 227.1 66.9661 220.211C67.0619 220.222 67.1679 220.242 67.2638 220.247C67.829 227.16 68.485 238.51 67.0115 250.894Z" fill="black"/>
<path d="M84.8808 278.816C84.785 278.826 84.6739 278.836 84.5679 278.851C85.5419 271.256 86.198 258.943 84.0885 245.736C82.0195 232.752 79.8344 224.455 78.7141 220.656C78.8201 220.64 78.916 220.64 79.0118 220.64H79.027C80.1473 224.491 82.3273 232.787 84.3913 245.701C86.5007 258.887 85.8397 271.195 84.8808 278.816Z" fill="black"/>
<path d="M97.7846 275.692C97.6938 275.737 97.5827 275.788 97.4869 275.823C97.2043 268.99 96.1596 260.901 94.4237 251.731C92.1477 239.711 90.0081 231.657 88.4538 225.763C87.7977 223.285 87.2376 221.185 86.8036 219.303C86.8995 219.278 86.9953 219.248 87.0912 219.222C87.5151 221.105 88.0803 223.199 88.7364 225.692C90.3008 231.581 92.4304 239.65 94.7214 251.671C96.4624 260.81 97.4919 268.859 97.7846 275.692Z" fill="black"/>
<path d="M174.677 121.408C174.586 121.403 174.525 121.332 174.53 121.256C174.541 120.979 174.43 120.313 173.511 118.996L173.471 118.94C173.425 118.874 173.445 118.779 173.511 118.733C173.577 118.688 173.673 118.703 173.723 118.773L173.753 118.819C174.48 119.863 174.848 120.706 174.828 121.266C174.823 121.347 174.753 121.408 174.677 121.408Z" fill="#281212"/>
<path d="M290.745 122.382C290.714 122.382 290.689 122.372 290.659 122.351C290.593 122.306 290.573 122.21 290.624 122.139C290.659 122.094 291.441 121.024 292.365 120.641C292.44 120.605 292.531 120.646 292.561 120.721C292.597 120.797 292.556 120.878 292.481 120.918C291.638 121.266 290.876 122.306 290.871 122.316C290.846 122.356 290.8 122.382 290.745 122.382Z" fill="#DC847F"/>
<path d="M411.949 203.261C411.793 203.261 411.662 203.134 411.657 202.973C411.647 202.811 411.778 202.67 411.939 202.665C411.97 202.665 414.533 202.544 417.223 200.863C420.766 198.638 422.931 194.692 423.47 189.433C423.491 189.267 423.622 189.151 423.798 189.166C423.96 189.186 424.081 189.332 424.066 189.494C423.354 196.387 420.11 199.763 417.511 201.383C414.695 203.139 412.076 203.255 411.96 203.255C411.96 203.261 411.96 203.261 411.949 203.261Z" fill="#A9A8E1"/>
<path d="M379.668 292.577C379.668 292.734 379.541 292.88 379.375 292.88C379.208 292.88 379.072 292.754 379.072 292.577C378.608 263.934 388.615 239.812 393.066 230.521C393.258 230.572 393.449 230.617 393.651 230.673C389.251 239.837 379.203 263.939 379.668 292.577Z" fill="#3A28B1"/>
<path d="M400.878 278.538C400.888 286.693 400.888 295.918 400.832 306.884C400.832 307.05 400.701 307.177 400.53 307.177C400.363 307.177 400.237 307.05 400.237 306.884C400.292 295.918 400.292 286.693 400.277 278.538C400.267 256.808 400.252 243.98 401.65 231.894C401.842 231.919 402.043 231.929 402.245 231.945C400.853 244.005 400.863 256.823 400.878 278.538Z" fill="#3A28B1"/>
<path d="M421.391 292.557C421.396 292.724 421.285 292.87 421.114 292.88C421.104 292.88 421.104 292.88 421.089 292.88C420.937 292.88 420.801 292.759 420.796 292.607C419.206 271.352 416.37 250.919 412.353 231.833C412.555 231.813 412.757 231.788 412.949 231.763C416.976 250.848 419.822 271.307 421.391 292.557Z" fill="#3A28B1"/>
<path d="M438.009 267.885C438.009 268.052 437.888 268.198 437.722 268.203H437.712C437.54 268.203 437.414 268.077 437.414 267.92C436.647 254.497 426.352 237.455 421.523 229.845C421.724 229.775 421.916 229.699 422.093 229.628C426.983 237.319 437.232 254.376 438.009 267.885Z" fill="#3A28B1"/>
<path d="M133.513 163.003C133.513 163.003 126.006 135.072 111.36 118C111.36 118.269 107.866 124.279 104.357 124.309C105.349 126.632 108.939 134.514 112.105 141.661C115.821 150.044 120.136 160.082 117.306 160.903C114.487 161.73 104.372 153.341 95.7576 149.821C94.0458 149.126 92.2585 148.563 90.4057 148.112C85.6177 146.951 80.3916 146.565 74.9088 146.677C74.8786 146.677 74.8534 146.677 74.8232 146.677C74.3096 147.544 73.3883 147.762 72.7136 147.422C72.6784 147.407 72.6532 147.371 72.628 147.346C71.9735 148.776 70.6645 150.029 68.852 150.942C64.8343 152.961 68.993 158.504 69.0735 162.247C69.149 165.991 65.3579 170.337 57.6245 171.681C54.9712 172.143 52.2826 172.442 49.876 172.386C50.2839 172.944 50.6363 173.543 50.8578 174.227C53.0882 180.968 53.3097 190.102 52.1971 197.665C51.0793 205.227 49 213.464 49 213.464C49 213.464 54.649 219.449 69.7381 220.722C84.8272 222 89.6606 218.475 90.0331 218.252C90.4057 218.028 92.485 204.775 94.5694 200.956C96.6488 197.137 102.076 190.995 99.4733 184.031C96.8703 177.068 94.3479 171.975 97.5399 170.479C100.737 168.983 108.098 174.821 117.241 176.17C126.379 177.529 136.333 175.358 133.513 163.003Z" fill="#31F7F7"/>
<path d="M109.728 112.373C109.051 112.602 108.68 116.202 108.374 116.278C108.069 116.355 107.769 110.273 107.097 110.425C106.42 110.573 106.72 116.507 106.568 116.919C106.425 117.331 104.39 108.096 103.189 109.072C101.988 110.049 104.242 118.079 103.937 118.531C103.637 118.979 100.782 111.32 100.329 112.973C99.8763 114.626 102.812 120.631 102.66 121.531C102.512 122.432 97.851 120.779 98.0037 122.132C98.1512 123.484 102.075 124.496 102.66 124.756C103.072 124.944 103.499 125.005 103.922 125C107.468 124.969 111 118.943 111 118.674C111.005 118.379 110.405 112.149 109.728 112.373Z" fill="#ECB7B0"/>
<defs>
<linearGradient id="paint0_linear" x1="252.995" y1="301.506" x2="361.998" y2="301.506" gradientUnits="userSpaceOnUse">
<stop offset="0.005" stop-color="#0F0063"/>
<stop offset="0.995" stop-color="#170083"/>
</linearGradient>
<linearGradient id="paint1_linear" x1="379.369" y1="229.642" x2="419.491" y2="152.791" gradientUnits="userSpaceOnUse">
<stop stop-color="#4C46D3"/>
<stop offset="0.9751" stop-color="#615FF4"/>
</linearGradient>
<linearGradient id="paint2_linear" x1="233.153" y1="55.8023" x2="320.847" y2="259.712" gradientUnits="userSpaceOnUse">
<stop stop-color="#FDC130"/>
<stop offset="1" stop-color="#FAA868"/>
</linearGradient>
</defs>
</svg>
